<?xml version="1.0" encoding="UTF-8"?>
<svg xmlns="http://www.w3.org/2000/svg" viewBox="0 0 400 800">
  <defs>
    <style>
      .cls-1, .cls-2, .cls-3, .cls-4, .cls-5, .cls-6, .cls-7, .cls-8, .cls-9, .cls-10 {
        stroke-width: .5px;
      }

      .cls-1, .cls-3, .cls-4, .cls-11, .cls-12, .cls-5, .cls-6, .cls-10, .cls-13 {
        fill: none;
      }

      .cls-1, .cls-12, .cls-5, .cls-6, .cls-7, .cls-13, .cls-14 {
        stroke: #231f20;
        stroke-linecap: round;
      }

      .cls-2 {
        fill: #e6e7e8;
        stroke: #414042;
      }

      .cls-2, .cls-3, .cls-4, .cls-11, .cls-15, .cls-8, .cls-9, .cls-10 {
        stroke-miterlimit: 10;
      }

      .cls-16, .cls-15, .cls-8, .cls-9 {
        fill: #fff;
      }

      .cls-3, .cls-4, .cls-11, .cls-15, .cls-8, .cls-9, .cls-10 {
        stroke: #010101;
      }

      .cls-4 {
        stroke-dasharray: 1.51 1.51;
      }

      .cls-12 {
        stroke-linejoin: round;
      }

      .cls-5, .cls-9 {
        stroke-dasharray: 1.5;
      }

      .cls-6 {
        stroke-dasharray: 1.51 1.51;
      }

      .cls-7, .cls-14 {
        fill: #939598;
        stroke-linejoin: bevel;
      }

      .cls-10 {
        stroke-dasharray: 1.52 1.52;
      }
    </style>
  </defs>
  <g id="Mannequin_STY_9head">
    <g id="Mannequin_GRP">
      <path id="body" class="cls-2" d="M200.02,353.45l7.51-.56c0,2.72,3.15,45.78,3.15,45.78,0,0,7.18,94.2,8,105,.82,10.8-2.32,53.33-2,64s11.57,111.44,11,121c-.57,9.56-8.1,74.22-7,80s5.64,9.98,9,10c9.2.07,26.45-17.92,25-27-4-25-10.21-55.45-10-63,.21-7.55,12.69-111.4,12.69-127.59s-5.56-48.19-4.69-55.41,10.73-89.73,11.35-116.11c.51-21.78-4.88-76.01-4.88-76.01,0,0-2.43-12.7-8.03-25.84-4.02-9.44-12.4-22.73-12.4-27.92s15-57.67,15-57.67l14.34,53.22s.89,26.89.89,34.52c-.52,12.52,17.31,54.54,17.52,57.54.21,3-8.05,18.63-9,23-1.49,6.84,1,28,1,28,0,0,1.64-.57,2-1,.97-1.17,1.7-2.48,2-6,.29-3.39,1-8,1-8,0,0,.92-.65,2-1.22,1.08-.57,3-.78,3-.78l1,12s-1.55,8.55-2,9c-.45.45-4.46,4-5,4s-4.71.6-6,1c-.86.27-2,2-2,2,0,0,7.57,2,8,2s9.29-4.29,10-5c.71-.71,6.25-12.42,7-14,.75-1.58-2-46-2-46l-3.3-64.73s-1.67-14.33-7-29.89c-1.33-3.11-2.14-27.68-8-67.59,0,0-5.2-33.79-13.74-42.04s-15.2-10.08-32.57-10.08c-19.59-1.34-23.3-20.78-17.09-36.73h-15.74s-.04,0-.04,0h-15.74c6.21,15.95,2.5,35.39-17.09,36.73-16.14,0-24.03,1.83-32.57,10.08s-13.74,42.04-13.74,42.04c-5.86,39.91-6.67,64.48-8,67.59-5.33,15.56-7,29.89-7,29.89l-3.3,64.73s-2.75,44.42-2,46c.75,1.58,6.29,13.29,7,14,.71.71,9.57,5,10,5s8-2,8-2c0,0-1.14-1.73-2-2-1.29-.4-5.46-1-6-1s-4.55-3.55-5-4c-.45-.45-2-9-2-9l1-12s1.92.2,3,.78c1.08.57,2,1.22,2,1.22,0,0,.71,4.61,1,8,.3,3.52,1.03,4.83,2,6,.36.43,2,1,2,1,0,0,2.49-21.16,1-28-.95-4.37-9.21-20-9-23,.21-3,18.04-45.03,17.52-57.54,0-7.63.89-34.52.89-34.52l14.34-53.22s15,52.48,15,57.67-8.37,18.48-12.4,27.92c-5.6,13.14-8.03,25.84-8.03,25.84,0,0-5.39,54.23-4.88,76.01.62,26.39,10.47,108.89,11.35,116.11s-4.69,39.22-4.69,55.41,12.48,120.03,12.69,127.59-6,38-10,63c-1.45,9.08,15.8,27.07,25,27,3.36-.02,7.9-4.22,9-10s-6.43-70.44-7-80,10.68-110.33,11-121-2.82-53.2-2-64,8-105,8-105c0,0,3.15-43.05,3.15-45.78l7.51.56h.04Z"/>
      <path id="ears" class="cls-2" d="M223.81,79.35c3.07.93,4.58-3.37,5.67-5.89,1.89-4.36,2.63-11.02-2.67-9.89h-54.63c-5.3-1.13-4.56,5.52-2.67,9.89,1.09,2.52,2.59,6.81,5.67,5.89h48.63Z"/>
      <path id="head" class="cls-2" d="M227.05,63.37c1.07-12.32,4.25-40.84-27.71-41.46-31.96.62-28.78,29.14-27.71,41.46,1.11,6.21,2.22,11.42,3.32,15.68,1.52,5.88,3.03,9.96,4.46,12.38,3.55,4.84,16.19,11.54,19.92,11.54s16.37-6.7,19.92-11.54c1.47-2.48,3.01-6.69,4.57-12.79.2-.78,2.98-13.96,3.22-15.27Z"/>
    </g>
  </g>
  <g id="f_top_ts_GRP">
    <g id="f_top_ts_tor_reg_GRP">
      <path id="f_top_ts_tor_reg" class="cls-13" d="M250.33,131.14c12.56.36,21.24,14.12,21.24,14.12,0,0-14.04,34.48-15.29,38.95-4.77,22.97-10.22,62.61-10.16,69.65,1.05,17.01,14.6,49.35,14.98,61.05-13.87,3.26-61.29,4.3-61.29,4.3,0,0-46.96-1.03-60.83-4.3.38-11.7,13.92-44.04,14.97-61.05,0-8.46-6.43-50.08-9.96-69.65-1.25-4.47-15.6-38.95-15.6-38.95,0,0,6.56-12.48,21.34-14.12"/>
    </g>
    <g id="f_top_ts_slv_lon_GRP">
      <g id="f_top_ts_slv_lon_l">
        <path id="f_top_ts_slv_lon_shape_l" class="cls-8" d="M252.04,207.18s11.02,49.9,11.37,61.38.32,11.4,21.34,79.22l22.64-5.73s-26.67-184-35.81-196.78c-2.03-4.11-12.47-14.61-21.48-13.67-4.94,8.09,1.38,71.92,1.95,75.6Z"/>
        <path id="f_top_ts_slv_lon_border_l" class="cls-11" d="M252.04,207.18c-.35.75,10.66,50.09,11.37,59.23q1,12.87,21.34,81.36l22.64-5.73c-1.75-6.54-24.11-176.3-35.81-196.78-.92-1.94-11.14-14.76-21.48-13.67"/>
      </g>
      <g id="f_top_ts_slv_lon_r">
        <path id="f_top_ts_slv_lon_shape_r" class="cls-8" d="M148.11,207.17s-12.49,50.73-12.53,63.39q-.04,15.78-20.13,77.42l-20.3-6.08s25.96-184.78,33.23-196.63c2.03-4.11,10.54-12.83,21.34-14.12,4.94,8.09-1.04,72.35-1.61,76.03Z"/>
        <path id="f_top_ts_slv_lon_border_r" class="cls-11" d="M148.11,207.17s-11.45,42.13-12.57,61.68q-1.1,19.28-20.09,79.12l-20.3-6.08c1.75-6.54,26.85-188.33,33.23-196.63.92-1.94,8.04-12.61,21.34-14.12"/>
      </g>
    </g>
    <g id="f_top_ts_tor_slm_GRP">
      <path id="f_top_ts_tor_slm" class="cls-13" d="M250.09,131.14c11.74,0,21.47,14.12,21.47,14.12,0,0-15.67,32.84-16.88,37.17-4.3,18.07,6.44,120.9,6.8,132.21-13.41,3.15-61.39,3.83-61.39,3.83,0,0-47.35-.68-60.76-3.83.37-11.31,11.1-114.14,6.8-132.21-1.21-4.32-17.76-37.17-17.76-37.17,0,0,7.28-12.66,21.34-14.12"/>
      <path id="f_top_ts_tor_slm_sem_hem" class="cls-13" d="M140.25,311.71s37.47,3.2,60.74,3.2,60.87-3.2,60.87-3.2"/>
    </g>
    <g id="f_top_ts_tor_crp_GRP">
      <path id="f_top_ts_tor_crp" class="cls-13" d="M250.33,131.14c12.75.64,21.24,14.12,21.24,14.12,0,0-15.95,33.91-17.16,38.23-4.3,18.07-.58,99.78-.58,99.78,0,0-27.46,3.83-54.01,3.83s-53.64-3.83-53.64-3.83c0,0,3.99-81.71-.31-99.78-1.21-4.32-17.49-38.23-17.49-38.23,0,0,7.8-12.83,21.34-14.12"/>
      <path id="f_top_ts_tor_crp_sem_hem" class="cls-13" d="M146.34,279.93s40.94,3.17,54.03,3.17,53.26-3.17,53.26-3.17"/>
    </g>
    <g id="f_top_ts_slv_set_GRP">
      <g id="f_top_ts_slv_set_l">
        <path id="f_top_ts_slv_set_shape_l" class="cls-8" d="M253.33,199.16l1.94,7.78,37.29-12.93s-16.67-41.94-20.99-48.76c-2.9-4.78-6.5-7.28-8.14-8.6-6.42,10.51-10.84,57.73-10.09,62.5Z"/>
        <path id="f_top_ts_slv_set_border_l" class="cls-15" d="M253.33,199.16l1.94,7.78,37.29-12.93c-2.27-8.49-18.32-45.09-20.99-48.76-1.23-1.73-5.37-7.11-8.14-8.6"/>
        <g id="f_top_ts_slv_set_sem_cuf_l_1">
          <line class="cls-16" x1="291.86" y1="191.78" x2="254.88" y2="205.37"/>
          <g>
            <line class="cls-3" x1="291.86" y1="191.78" x2="291.15" y2="192.03"/>
            <line class="cls-10" x1="289.73" y1="192.56" x2="256.29" y2="204.85"/>
            <line class="cls-3" x1="255.58" y1="205.11" x2="254.88" y2="205.37"/>
          </g>
        </g>
        <line id="f_top_ts_slv_set_sem_cuf_l_2" class="cls-9" x1="291.5" y1="190.63" x2="254.58" y2="204.2"/>
      </g>
      <g id="f_top_ts_slv_set_r">
        <path id="f_top_ts_slv_set_shape_r" class="cls-8" d="M146.67,199.16l-1.94,7.78-37.29-12.93s16.62-41.94,20.94-48.76c.92-1.92,6.33-7.81,8.17-8.73,6.42,10.51,10.86,57.86,10.11,62.63Z"/>
        <path id="f_top_ts_slv_set_border_r" class="cls-11" d="M146.67,199.16l-1.94,7.78-37.29-12.93c2.27-8.49,18.27-45.09,20.94-48.76,1.47-2.45,3.5-4.77,8.17-8.73"/>
        <g id="f_top_ts_slv_set_sem_cuf_r_1">
          <line class="cls-16" x1="108.5" y1="190.63" x2="145.42" y2="204.2"/>
          <g>
            <line class="cls-3" x1="108.5" y1="190.63" x2="109.21" y2="190.89"/>
            <line class="cls-4" x1="110.63" y1="191.41" x2="144" y2="203.68"/>
            <line class="cls-3" x1="144.71" y1="203.94" x2="145.42" y2="204.2"/>
          </g>
        </g>
        <g id="f_top_ts_slv_set_sem_cuf_r_2">
          <line class="cls-16" x1="109.32" y1="189.48" x2="146.23" y2="203.05"/>
          <g>
            <line class="cls-3" x1="109.32" y1="189.48" x2="110.02" y2="189.74"/>
            <line class="cls-4" x1="111.44" y1="190.26" x2="144.81" y2="202.53"/>
            <line class="cls-3" x1="145.53" y1="202.79" x2="146.23" y2="203.05"/>
          </g>
        </g>
      </g>
    </g>
    <g id="f_top_ts_nck_mok_GRP">
      <path id="f_top_ts_nck_mok_inline" class="cls-1" d="M174.56,127.95s8.3,7.34,25.43,7.34,25.37-7.34,25.37-7.34"/>
      <g id="f_top_ts_nck_mok_sem_2">
        <g>
          <path class="cls-1" d="M175.52,127.06s.21.15.62.42"/>
          <path class="cls-6" d="M177.43,128.26c3.49,2.01,11.58,5.82,22.59,5.82,11.71,0,20-4.25,23.03-6.08"/>
          <path class="cls-1" d="M223.69,127.6c.41-.26.62-.42.62-.42"/>
        </g>
      </g>
      <path id="f_top_ts_nck_mok_inside" class="cls-14" d="M179.97,121.55s10.95,1.74,20.05,1.74,20.08-1.48,20.08-1.48c0,0-3.03,6.14-20.1,6.14s-20.03-6.4-20.03-6.4Z"/>
      <path id="f_top_ts_nck_mok_sem" class="cls-5" d="M180.58,122.42s10.64,1.64,19.46,1.64,19.56-1.54,19.56-1.54"/>
      <path id="f_top_ts_nck_mok_outline" class="cls-12" d="M149.73,131.14s23.4-2.15,24.84-3.19,5.41-6.4,5.41-6.4c0,0,11.16,1.74,20.03,1.74s20.1-1.48,20.1-1.48c0,0,3.29,5.18,5.26,6.14s24.75,3.19,24.75,3.19"/>
    </g>
    <g id="f_top_ts_nck_v_GRP">
      <path id="f_top_ts_nck_v_inside" class="cls-7" d="M173.3,128.15s5.23,5.88,26.68,5.88,27.09-5.88,27.09-5.88l-27.01,29.83-26.76-29.83Z"/>
      <polyline id="f_top_ts_nck_v_inline" class="cls-1" points="173.3 128.15 199.97 157.98 227.07 128.15"/>
      <path id="f_top_ts_nck_v_outline" class="cls-12" d="M149.73,131.14l23.57-2.99s5.69,5.88,26.83,5.88,26.93-5.88,26.93-5.88l23.16,2.98"/>
      <path id="f_top_ts_nck_v_sem_3" class="cls-1" d="M180.23,135.86s5.41,2.14,19.85,2.14,19.98-2.13,19.98-2.13"/>
      <polyline id="f_top_ts_nck_v_sem_4" class="cls-1" points="167.55 128.81 200.14 165.6 232.5 128.77"/>
      <path id="f_top_ts_nck_v_sem_2" class="cls-1" d="M179.31,134.88s6.28,2.23,20.72,2.29c14.11.07,20.62-2.24,20.93-2.3"/>
      <polyline id="f_top_ts_nck_v_sem" class="cls-5" points="168.39 128.53 200.06 164.41 231.28 128.65"/>
    </g>
  </g>
</svg>