<?xml version="1.0" encoding="UTF-8"?>
<svg xmlns="http://www.w3.org/2000/svg" viewBox="0 0 4535.4 4762.2">
  <defs>
    <style>
      .cls-1, .cls-2, .cls-3, .cls-4, .cls-5, .cls-6, .cls-7, .cls-8, .cls-9, .cls-10 {
        fill: none;
      }

      .cls-1, .cls-11, .cls-6, .cls-8, .cls-9 {
        stroke: #000;
        stroke-miterlimit: 10;
      }

      .cls-2, .cls-3, .cls-4, .cls-5, .cls-7, .cls-12, .cls-10 {
        stroke: #231f20;
        stroke-linecap: round;
      }

      .cls-13, .cls-11 {
        fill: #fff;
      }

      .cls-3 {
        stroke-linejoin: round;
      }

      .cls-3, .cls-4, .cls-8 {
        stroke-width: 3px;
      }

      .cls-5 {
        stroke-dasharray: 12.28 12.28;
      }

      .cls-6 {
        stroke-dasharray: 11.53 11.53;
      }

      .cls-7 {
        stroke-dasharray: 12;
      }

      .cls-12 {
        fill: #939598;
        stroke-linejoin: bevel;
      }

      .cls-9 {
        stroke-dasharray: 11.55 11.55;
      }

      .cls-10 {
        stroke-dasharray: 11.75 11.75;
      }

      .cls-14 {
        opacity: .5;
      }
    </style>
  </defs>
  <g id="Mannequin_ISO_EU38_GRP" class="cls-14">
    <g id="body_front_grp">
      <g id="measurements_lines" data-name="measurements lines">
        <path id="waist_line" data-name="waist line" class="cls-4" d="M1492.8,1740.9c0,13.1-138.7,29.6-359.3,29.6s-358.3-18.7-358.3-29.6,188-10,358.3-10,359.3-3.1,359.3,10Z"/>
        <path id="hip_line" data-name="hip line" class="cls-4" d="M658.8,2325.1c0,7.8,228.8,28.4,474.8,28.4s475.8-16.9,475.8-24.4-223.3-23.9-475.8-23.9-474.8,12-474.8,19.9h0Z"/>
        <line id="center_line" data-name="center line" class="cls-4" x1="1133.7" y1="580.2" x2="1133.7" y2="2537"/>
        <path id="bust_line" data-name="bust line" class="cls-4" d="M1560.6,1198.5c-3.3,11.6-163.3,23.1-427,23.1s-426-8-426-23.1c11.4-13.3,186.4-13.7,426-13.7s419.5,4.6,427.1,13.7h-.1Z"/>
      </g>
      <path id="right_leg" data-name="right leg" class="cls-4" d="M1103.7,2536.4c-83.7-135.5-298-350.6-401.9-402.7-28.6,87.8-32.8,133.2-42.9,191.4-10.1,58.2-59.7,324.6-46.9,443.2,12.8,118.6,69.7,631.2,77.7,674.9,8,43.7,14.9,162.4,8.9,239.1s47.2,751.5,74.7,838.1c-1.4-.2,175.8-.2,175.5,0,4.5-112.3,64-626.8,64.5-838.1,0-59.3-4.8-136.1,11.3-239.1,16.1-102.9,69.1-695,68.1-680.3-1,14.7,12.6-109.1,11-226.5h0Z"/>
      <path id="left_leg" data-name="left leg" class="cls-4" d="M1163.6,2536.6c84.4-135.1,298.6-351.2,402.7-402.9,28.2,87.9,33.2,135.4,43.1,193.7,9.9,58.3,59.1,324.8,45.7,443.4-13.4,118.6-73.6,630.8-81.8,674.5-8.2,43.7-15.7,162.3-10,239,5.7,76.7-50.7,751.3-78.6,837.8,1.4-.2-175.8-1.1-175.4-.8-4-112.3-61-627.1-60.6-838.4.3-59.3,5.4-136.1-10.2-239.1s-65.8-695.3-64.9-680.6c.8,14.7-12.1-109.2-9.9-226.6h-.1Z"/>
      <path id="left_arm" data-name="left arm" class="cls-4" d="M707.5,1198.4c-12,82.7-93.4,572.4-93.4,572.4,0,0-130.8,522.2-138.4,546.9-25.2,23.4-119.4,4.5-131.6-13.7-1.3-19.9,66.6-533.3,66.6-533.3,0,0,128-852.6,152.9-881.1,27.2,4.3,91.6,54.3,130.5,118.5,39,64.2,13.4,190.3,13.4,190.3h0Z"/>
      <path id="right_arm" data-name="right arm" class="cls-4" d="M1560.6,1198.5c12,82.7,93,572.4,93,572.4,0,0,130.8,522.2,138.4,546.9,25.2,23.4,119.4,4.5,131.6-13.7,1.3-19.9-66.6-533.3-66.6-533.3,0,0-128-852.6-152.9-881.1-27.2,4.3-91.6,54.3-130.5,118.5-39,64.2-13,190.3-13,190.3h0Z"/>
      <path id="neck_outline" data-name="neck outline" class="cls-4" d="M1133.6,761.5c18.4,0,124.9,3.8,153.8-39.5-30.6-51.1,0-141.7,0-141.7h-306.5s30.6,90.6,0,141.7c30.7,43.3,134.3,39.5,152.8,39.5h-.1Z"/>
      <path id="body_outlines" data-name="body outlines" class="cls-4" d="M1133.6,706c-96.9,0-152.8,16-152.8,16,0,0-25.8,42.4-43.7,48s-174.3,22-194.6,23.3c-20.4,1.3-151.1,29.7-181.7,102.2-25.3,84.9,61.8,259.1,146.7,302.9,19.5,67.7,28.7,118.9,36.8,166.9s31,264.9,31,377.2-49.6,296.5-73.5,391.2c103.3,133.9,401.9,402.5,401.9,402.5l30.9.5,29.9-.5s298.6-268.7,401.9-402.5c-23.9-94.7-73.5-278.9-73.5-391.2s22.9-329.2,31-377.2c8.1-48,17.3-99.2,36.8-166.9,84.9-43.8,172.1-218,146.7-302.9-30.7-72.5-161.3-100.9-181.7-102.2-20.4-1.3-176.8-17.7-194.6-23.3s-43.7-48-43.7-48c0,0-56.9-16-153.8-16h0Z"/>
    </g>
    <g id="body_back_grp">
      <g id="measurements_lines-2" data-name="measurements lines-2">
        <path id="waist_line-2" data-name="waist line-2" class="cls-4" d="M3760.5,1740.9c0,13.1-138.7,29.6-359.3,29.6s-358.3-18.7-358.3-29.6,188-10,358.3-10,359.3-3.1,359.3,10Z"/>
        <path id="hip_line-2" data-name="hip line-2" class="cls-4" d="M2926.6,2325.1c0,7.8,228.8,28.4,474.8,28.4s475.8-16.9,475.8-24.4-223.3-23.9-475.8-23.9-474.8,12-474.8,19.9h0Z"/>
        <line id="center_line-2" data-name="center line-2" class="cls-4" x1="3401.4" y1="580.2" x2="3401.4" y2="2537"/>
        <path id="bust_line-2" data-name="bust line-2" class="cls-4" d="M3828.3,1198.5c-3.3,11.6-163.3,23.1-427.1,23.1s-426-8-426-23.1c11.4-13.3,186.4-13.7,426-13.7s419.5,4.6,427.1,13.7h0Z"/>
      </g>
      <path id="right_leg-2" data-name="right leg-2" class="cls-4" d="M3371.4,2536.4c-83.7-135.5-298-350.6-401.9-402.7-28.6,87.8-32.8,133.2-42.9,191.4-10.1,58.2-59.7,324.6-46.9,443.2,12.8,118.7,69.7,631.2,77.7,674.9,8,43.7,14.9,162.4,8.9,239.1s47.2,751.5,74.6,838.1c-1.4-.2,175.8-.2,175.5,0,4.5-112.3,64-626.8,64.5-838.1,0-59.3-4.8-136.1,11.3-239.1s69.1-695,68.1-680.3c-1,14.7,12.6-109.1,11-226.5h.1Z"/>
      <path id="left_leg-2" data-name="left leg-2" class="cls-4" d="M3431.3,2536.6c84.4-135.1,298.6-351.2,402.7-402.9,28.2,87.9,33.2,135.4,43.1,193.7,9.9,58.3,59.1,324.8,45.7,443.4-13.4,118.6-73.6,630.8-81.8,674.5-8.2,43.7-15.6,162.3-10,239,5.6,76.7-50.7,751.3-78.6,837.8,1.4-.2-175.8-1.1-175.4-.8-4-112.3-61-627.1-60.6-838.4.3-59.3,5.4-136.1-10.2-239.1-15.6-103-65.8-695.3-64.9-680.6.9,14.7-12.1-109.2-9.9-226.6h-.1Z"/>
      <path id="left_arm-2" data-name="left arm-2" class="cls-4" d="M2975.2,1198.4c-12,82.7-93.4,572.4-93.4,572.4,0,0-130.8,522.2-138.4,546.9-25.2,23.4-119.4,4.5-131.6-13.7-1.3-19.9,66.6-533.3,66.6-533.3,0,0,128-852.6,152.9-881.1,27.2,4.3,91.6,54.3,130.5,118.5,39,64.2,13.4,190.3,13.4,190.3h0Z"/>
      <path id="right_arm-2" data-name="right arm-2" class="cls-4" d="M3828.3,1198.5c12,82.7,93,572.4,93,572.4,0,0,130.8,522.2,138.4,546.9,25.2,23.4,119.4,4.5,131.6-13.7,1.3-19.9-66.6-533.3-66.6-533.3,0,0-128-852.6-152.9-881.1-27.2,4.3-91.6,54.3-130.5,118.5-39,64.2-13,190.3-13,190.3h0Z"/>
      <path id="neck_outline-2" data-name="neck outline-2" class="cls-4" d="M3401.3,761.5c18.4,0,124.9,3.8,153.8-39.5-30.6-51.1,0-141.7,0-141.7h-306.5s30.6,90.6,0,141.7c30.6,43.3,134.3,39.5,152.8,39.5h-.1Z"/>
      <path id="body_outlines-2" data-name="body outlines-2" class="cls-4" d="M3401.3,706c-96.9,0-152.8,16-152.8,16,0,0-25.8,42.4-43.6,48-17.8,5.6-174.3,22-194.6,23.3-20.4,1.3-151.1,29.7-181.7,102.2-25.3,84.9,61.8,259.1,146.7,302.9,19.5,67.7,28.7,118.9,36.8,166.9s31,264.9,31,377.2-49.6,296.5-73.5,391.2c0,403.3,401.9,402.5,401.9,402.5l30.9.5,29.9-.5s401.9,37.2,401.9-402.5c-23.9-94.7-73.5-278.9-73.5-391.2s22.9-329.2,31-377.2,17.3-99.2,36.8-166.9c84.9-43.8,172.1-218,146.7-302.9-30.7-72.5-161.4-100.9-181.7-102.2-20.3-1.3-176.8-17.7-194.6-23.3-17.8-5.6-43.6-48-43.6-48,0,0-56.9-16-153.8-16h-.2Z"/>
    </g>
  </g>
  <g id="f_top_ts_GRP">
    <g id="f_top_ts_tor_reg_GRP">
      <path id="f_top_ts_tor_reg" class="cls-4" d="M1527.3,793.3c151.87,25.34,181.7,102.2,181.7,102.2,0,0-135.85,268.74-145.4,302.9-33.94,142.73-4.54,477.9-4.54,542.5,8,129.88,55.41,492.99,58.3,582.32-105.9,24.9-484.96,30.28-484.96,30.28,0,0-374.06-5.38-479.96-30.28,2.89-89.33,48.22-452.44,56.22-582.32,0-64.6,31.48-399.77-2.46-542.5-9.55-34.16-145.4-302.9-145.4-302.9,0,0,29.83-76.86,181.7-102.2"/>
      <path id="f_top_ts_tor_reg_sem_hem" class="cls-4" d="M654.6,2300.15s295.98,25.3,479.8,25.3,480.8-25.3,480.8-25.3"/>
    </g>
    <g id="f_top_ts_tor_slm_GRP">
      <path id="f_top_ts_tor_slm" class="cls-4" d="M1524.8,793.4c151.87,25.34,181.7,102.1,181.7,102.1,0,0-136.25,268.84-145.8,303-33.94,142.73-56.2,477.9-56.2,542.5,8,129.88,112.01,494.77,114.9,584.1-105.9,24.9-487,28.5-487,28.5,0,0-377.7-3.6-483.6-28.5,2.89-89.33,108.5-454.32,116.5-584.2,0-64.6-23.76-399.67-57.7-542.4-9.55-34.16-146.8-302.9-146.8-302.9,0,0,29.83-76.86,181.7-102.2"/>
      <path id="f_top_ts_tor_slm_sem_hem" class="cls-4" d="M651.2,2299.85s298.18,25.6,482,25.6,483.9-25.11,483.9-25.11"/>
    </g>
    <g id="f_top_ts_tor_crp_GRP">
      <path id="f_top_ts_tor_crp" class="cls-4" d="M1527.3,793.3c151.87,25.34,181.7,102.2,181.7,102.2,0,0-135.85,268.74-145.4,302.9-33.94,142.73-4.54,788.21-4.54,788.21,0,0-216.92,30.28-426.66,30.28s-423.74-30.28-423.74-30.28c0,0,31.48-645.48-2.46-788.21-9.55-34.16-145.4-302.9-145.4-302.9,0,0,29.83-76.86,181.7-102.2"/>
      <path id="f_top_ts_tor_crp_sem_hem" class="cls-4" d="M709.96,1960.24s323.42,25.06,426.79,25.06,420.7-25.06,420.7-25.06"/>
    </g>
    <g id="f_top_ts_slv_set_GRP">
      <g id="f_top_ts_slv_set_r">
        <path id="f_top_ts_slv_set_shape_r" class="cls-11" d="M726.71,1312.55l-14.78,59.42-284.68-98.72s100.61-325.73,133.55-377.75c20.09-40.72,68.61-65.5,82.66-72.51,48.99,80.23,88.97,453.09,83.25,489.56Z"/>
        <path id="f_top_ts_slv_set_border_r" class="cls-8" d="M726.71,1312.55l-14.78,59.42-284.68-98.72c17.35-64.85,113.2-349.73,133.55-377.75,9.14-19.22,27.98-47,82.66-72.51"/>
        <g id="f_top_ts_slv_set_sem_cuf_r_1">
          <line class="cls-13" x1="432.57" y1="1256.17" x2="714.91" y2="1359.99"/>
          <g>
            <line class="cls-1" x1="432.57" y1="1256.17" x2="438.2" y2="1258.24"/>
            <line class="cls-9" x1="449.04" y1="1262.23" x2="703.86" y2="1355.92"/>
            <line class="cls-1" x1="709.28" y1="1357.92" x2="714.91" y2="1359.99"/>
          </g>
        </g>
        <g id="f_top_ts_slv_set_sem_cuf_r_2">
          <line class="cls-13" x1="435.32" y1="1247.4" x2="717.15" y2="1350.99"/>
          <g>
            <line class="cls-1" x1="435.32" y1="1247.4" x2="440.95" y2="1249.47"/>
            <line class="cls-6" x1="451.77" y1="1253.45" x2="706.11" y2="1346.93"/>
            <line class="cls-1" x1="711.52" y1="1348.92" x2="717.15" y2="1350.99"/>
          </g>
        </g>
      </g>
      <g id="f_top_ts_slv_set_l">
        <path id="f_top_ts_slv_set_shape_l" class="cls-11" d="M1541.13,1312.55l14.78,59.42,284.68-98.72s-100.61-325.73-133.55-377.75c-20.09-40.72-68.61-65.5-82.66-72.51-48.99,80.23-88.97,453.09-83.25,489.56Z"/>
        <path id="f_top_ts_slv_set_border_l" class="cls-8" d="M1541.13,1312.55l14.78,59.42,284.68-98.72c-17.35-64.85-113.2-349.73-133.55-377.75-9.14-19.22-27.98-47-82.66-72.51"/>
        <g id="f_top_ts_slv_set_sem_cuf_l_1">
          <line class="cls-13" x1="1835.27" y1="1256.17" x2="1552.93" y2="1359.99"/>
          <g>
            <line class="cls-1" x1="1835.27" y1="1256.17" x2="1829.64" y2="1258.24"/>
            <line class="cls-9" x1="1818.8" y1="1262.23" x2="1563.98" y2="1355.92"/>
            <line class="cls-1" x1="1558.56" y1="1357.92" x2="1552.93" y2="1359.99"/>
          </g>
        </g>
        <g id="f_top_ts_slv_set_sem_cuf_l_2">
          <line class="cls-13" x1="1832.52" y1="1247.4" x2="1550.69" y2="1350.99"/>
          <g>
            <line class="cls-1" x1="1832.52" y1="1247.4" x2="1826.89" y2="1249.47"/>
            <line class="cls-6" x1="1816.07" y1="1253.45" x2="1561.73" y2="1346.93"/>
            <line class="cls-1" x1="1556.32" y1="1348.92" x2="1550.69" y2="1350.99"/>
          </g>
        </g>
      </g>
    </g>
    <g id="f_top_ts_slv_lon_GRP">
      <g id="f_top_ts_slv_lon_r">
        <path id="f_top_ts_slv_lon_shape_r" class="cls-11" d="M726.49,1312.55l-250.79,1005.15-252.48-78.92s304.42-1291.26,337.36-1343.28c20.09-40.72,68.61-65.5,82.66-72.51,48.99,80.23,88.97,453.09,83.25,489.56Z"/>
        <path id="f_top_ts_slv_lon_border_r" class="cls-8" d="M726.49,1312.55l-250.79,1005.15-252.48-78.92c17.35-64.85,317-1315.26,337.36-1343.28,9.14-19.22,27.98-47,82.66-72.51"/>
      </g>
      <g id="f_top_ts_slv_lon_l">
        <path id="f_top_ts_slv_lon_shape_l" class="cls-11" d="M1541.06,1312.55l250.94,1005.25,252.33-79.02s-304.42-1291.26-337.36-1343.28c-20.09-40.72-68.61-65.5-82.66-72.51-48.99,80.23-88.97,453.09-83.25,489.56Z"/>
        <path id="f_top_ts_slv_lon_border_l" class="cls-8" d="M1541.06,1312.55l250.94,1005.25,252.33-79.02c-17.35-64.85-317-1315.26-337.36-1343.28-9.14-19.22-27.98-47-82.66-72.51"/>
      </g>
    </g>
    <g id="f_top_ts_nck_mok_GRP">
      <path id="f_top_ts_nck_mok_inline" class="cls-2" d="M939.7,768.84s63.36,56.01,194.2,56.01,193.69-56.01,193.69-56.01"/>
      <g id="f_top_ts_nck_mok_sem_2">
        <g>
          <path class="cls-2" d="M947,762.02s1.69,1.24,4.97,3.35"/>
          <path class="cls-5" d="M962.48,771.72c27.15,15.46,88.47,43.95,171.53,43.95,88.77,0,151.77-31.96,175.3-46.1"/>
          <path class="cls-2" d="M1314.53,766.32c3.28-2.11,4.97-3.36,4.97-3.36"/>
        </g>
      </g>
      <path id="f_top_ts_nck_mok_inside" class="cls-12" d="M981,720s83.64,13.3,153.1,13.3,153.3-11.3,153.3-11.3c0,0-23.16,46.84-153.5,46.84s-152.9-48.84-152.9-48.84Z"/>
      <path id="f_top_ts_nck_mok_sem_1" class="cls-7" d="M985.64,726.59s81.2,12.52,148.56,12.52,149.36-11.79,149.36-11.79"/>
      <path id="f_top_ts_nck_mok_outline" class="cls-3" d="M742.5,793.3s186.24-16.52,197.2-24.46c10.96-7.93,41.3-48.84,41.3-48.84,0,0,85.24,13.3,152.9,13.3s153.5-11.3,153.5-11.3c0,0,25.11,39.58,40.19,46.84,15.08,7.27,198.11,24.46,198.11,24.46"/>
    </g>
    <g id="f_top_ts_nck_v_GRP">
      <path id="f_top_ts_nck_v_inside" class="cls-12" d="M922.67,772.4s41.32,46.41,210.58,46.41,213.86-46.41,213.86-46.41l-213.21,235.5-211.23-235.5Z"/>
      <polyline id="f_top_ts_nck_v_inline" class="cls-4" points="922.67 772.4 1133.25 1007.9 1347.11 772.4"/>
      <path id="f_top_ts_nck_v_outline" class="cls-3" d="M741.65,793.3l181.02-20.9s44.89,46.41,211.84,46.41,212.61-46.41,212.61-46.41l177.74,20.9"/>
      <path id="f_top_ts_nck_v_sem_3" class="cls-2" d="M977.41,833.22s42.69,16.87,156.68,16.87,157.73-16.81,157.73-16.81"/>
      <polyline id="f_top_ts_nck_v_sem_4" class="cls-2" points="877.26 777.64 1134.55 1068 1390.04 777.26"/>
      <path id="f_top_ts_nck_v_sem_2" class="cls-2" d="M970.14,825.49s49.58,17.58,163.56,18.11c111.35.52,162.77-17.68,165.26-18.17"/>
      <polyline id="f_top_ts_nck_v_sem_1" class="cls-7" points="883.89 775.4 1133.96 1058.67 1380.4 776.31"/>
    </g>
  </g>
  <g id="b_top_ts_GRP">
    <g id="b_top_ts_tor_reg_GRP">
      <path id="b_top_ts_tor_reg" class="cls-4" d="M3792.5,793.4c151.87,25.34,181.7,102.1,181.7,102.1,0,0-133.27,270.74-142.82,304.9-33.94,142.73-2.41,477.9-2.41,542.5,8,129.88,53.27,492.99,56.16,582.32-105.9,24.9-484.96,30.28-484.96,30.28,0,0-374.06-5.38-479.96-30.28,2.89-89.33,48.16-452.44,56.16-582.32,0-64.6,31.54-399.77-2.41-542.5-9.55-34.16-145.38-304.9-145.38-304.9,0,0,29.83-76.86,181.7-102.2"/>
      <path id="b_top_ts_tor_reg_sem_hem" class="cls-4" d="M2921.61,2300.15s295.98,25.3,479.8,25.3,480.8-25.3,480.8-25.3"/>
    </g>
    <g id="b_top_ts_tor_slm_GRP">
      <path id="b_top_ts_tor_slm" class="cls-4" d="M3792.5,793.4c151.87,25.34,181.7,102.1,181.7,102.1,0,0-133.55,270.74-143.1,304.9-33.94,142.73-59.1,477.9-59.1,542.5,8,129.88,109.97,492.99,112.86,582.32-105.9,24.9-484.96,30.28-484.96,30.28,0,0-374.06-5.38-479.96-30.28,2.89-89.33,104.86-452.44,112.86-582.32,0-64.6-25.16-399.77-59.1-542.5-9.55-34.16-145.2-304.77-145.2-304.77,0,0,29.93-76.99,181.8-102.33"/>
      <path id="b_top_ts_tor_slm_sem_hem" class="cls-4" d="M2921.6,2299.8s295.98,25.3,479.8,25.3,480.8-25.3,480.8-25.3"/>
    </g>
    <g id="b_top_ts_tor_crp_GRP">
      <path id="b_top_ts_tor_crp" class="cls-4" d="M3792.5,793.4c151.87,25.34,181.7,102.1,181.7,102.1,0,0-133.25,268.74-142.8,302.9-33.94,142.73-4.54,788.21-4.54,788.21,0,0-216.92,30.28-426.66,30.28s-423.74-30.28-423.74-30.28c0,0,31.48-645.48-2.46-788.21-9.55-34.16-145.4-302.9-145.4-302.9,0,0,29.83-76.86,181.7-102.2"/>
      <path id="b_top_ts_tor_crp_sem_hem" class="cls-4" d="M2975.13,1953.61s323.42,25.06,426.79,25.06,420.7-25.06,420.7-25.06"/>
    </g>
    <g id="b_top_ts_slv_set_GRP">
      <g id="b_top_ts_slv_set_r">
        <path id="b_top_ts_slv_set_shape_r" class="cls-11" d="M2994.49,1312.55l-14.78,59.42-284.68-98.72s100.61-325.73,133.55-377.75c20.09-40.72,68.61-65.5,82.66-72.51,48.99,80.23,88.97,453.09,83.25,489.56Z"/>
        <path id="b_top_ts_slv_set_border_r" class="cls-8" d="M2994.49,1312.55l-14.78,59.42-284.68-98.72c17.35-64.85,113.2-349.73,133.55-377.75,9.14-19.22,27.98-47,82.66-72.51"/>
        <g id="b_top_ts_slv_set_sem_cuf_r_1">
          <line class="cls-13" x1="2700.35" y1="1256.17" x2="2982.69" y2="1359.99"/>
          <g>
            <line class="cls-1" x1="2700.35" y1="1256.17" x2="2705.98" y2="1258.24"/>
            <line class="cls-9" x1="2716.82" y1="1262.23" x2="2971.64" y2="1355.92"/>
            <line class="cls-1" x1="2977.06" y1="1357.92" x2="2982.69" y2="1359.99"/>
          </g>
        </g>
        <g id="b_top_ts_slv_set_sem_cuf_r_2">
          <line class="cls-13" x1="2703.1" y1="1247.4" x2="2984.93" y2="1350.99"/>
          <g>
            <line class="cls-1" x1="2703.1" y1="1247.4" x2="2708.73" y2="1249.47"/>
            <line class="cls-6" x1="2719.55" y1="1253.45" x2="2973.89" y2="1346.93"/>
            <line class="cls-1" x1="2979.3" y1="1348.92" x2="2984.93" y2="1350.99"/>
          </g>
        </g>
      </g>
      <g id="b_top_ts_slv_set_l">
        <path id="b_top_ts_slv_set_shape_l" class="cls-11" d="M3808.91,1312.55l14.78,59.42,284.68-98.72s-100.61-325.73-133.55-377.75c-20.09-40.72-68.61-65.5-82.66-72.51-48.99,80.23-88.97,453.09-83.25,489.56Z"/>
        <path id="b_top_ts_slv_set_border_l" class="cls-8" d="M3808.91,1312.55l14.78,59.42,284.68-98.72c-17.35-64.85-113.2-349.73-133.55-377.75-9.14-19.22-27.98-47-82.66-72.51"/>
        <g id="b_top_ts_slv_set_sem_cuf_l_1">
          <line class="cls-13" x1="4103.05" y1="1256.17" x2="3820.71" y2="1359.99"/>
          <g>
            <line class="cls-1" x1="4103.05" y1="1256.17" x2="4097.42" y2="1258.24"/>
            <line class="cls-9" x1="4086.58" y1="1262.23" x2="3831.76" y2="1355.92"/>
            <line class="cls-1" x1="3826.34" y1="1357.92" x2="3820.71" y2="1359.99"/>
          </g>
        </g>
        <g id="b_top_ts_slv_set_sem_cuf_l_2">
          <line class="cls-13" x1="4100.3" y1="1247.4" x2="3818.47" y2="1350.99"/>
          <g>
            <line class="cls-1" x1="4100.3" y1="1247.4" x2="4094.67" y2="1249.47"/>
            <line class="cls-6" x1="4083.85" y1="1253.45" x2="3829.51" y2="1346.93"/>
            <line class="cls-1" x1="3824.1" y1="1348.92" x2="3818.47" y2="1350.99"/>
          </g>
        </g>
      </g>
    </g>
    <g id="b_top_ts_nck_mok_GRP">
      <path id="b_top_ts_nck_mok_inline" class="cls-2" d="M3207.48,770.84s63.36,25.01,194.2,25.01,193.69-25.01,193.69-25.01"/>
      <g id="b_top_ts_nck_mok_sem_2">
        <g>
          <path class="cls-2" d="M3214.78,764.02s1.97.61,5.77,1.63"/>
          <path class="cls-10" d="M3231.94,768.51c27.95,6.6,88.46,18.15,169.86,18.15,87.19,0,149.52-12.7,174.01-18.67"/>
          <path class="cls-2" d="M3581.5,766.56c3.81-1,5.78-1.6,5.78-1.6"/>
        </g>
      </g>
      <path id="b_top_ts_nck_mok_sem_1" class="cls-7" d="M3253.42,728.59s81.2,12.52,148.56,12.52,149.36-11.79,149.36-11.79"/>
      <path id="b_top_ts_nck_mok_outline" class="cls-3" d="M3009.3,793.4s186.24-16.52,197.2-24.46c10.96-7.93,41.3-48.84,41.3-48.84,0,0,85.24,13.3,152.9,13.3s153.5-11.3,153.5-11.3c0,0,25.11,39.58,40.19,46.84,15.08,7.27,198.11,24.46,198.11,24.46"/>
    </g>
    <g id="b_top_ts_nck_v_GRP">
      <path id="b_top_ts_nck_v_outline" class="cls-3" d="M3010.3,793.3l174.61-19.6s45.8,47.54,212.74,47.54,214.8-48.54,214.8-48.54l180.04,20.7"/>
      <path id="b_top_ts_nck_v_sem_1" class="cls-7" d="M3140.12,779.18s55.83,72.08,261.28,72.08,259.27-72.26,259.27-72.26"/>
      <path id="b_top_ts_nck_v_sem_2" class="cls-2" d="M3150.54,777.9s56.66,66.18,250.86,66.18,246.57-65.63,249.06-66.13"/>
    </g>
    <g id="b_top_ts_slv_lon_GRP">
      <g id="b_top_ts_slv_lon_r">
        <path id="b_top_ts_slv_lon_shape_r" class="cls-11" d="M2994.14,1312.55l-250.79,1005.15-252.48-78.92s304.42-1291.26,337.36-1343.28c20.09-40.72,68.61-65.5,82.66-72.51,48.99,80.23,88.97,453.09,83.25,489.56Z"/>
        <path id="b_top_ts_slv_lon_border_r" class="cls-8" d="M2994.14,1312.55l-250.79,1005.15-252.48-78.92c17.35-64.85,317-1315.26,337.36-1343.28,9.14-19.22,27.98-47,82.66-72.51"/>
      </g>
      <g id="b_top_ts_slv_lon_l">
        <path id="b_top_ts_slv_lon_shape_l" class="cls-11" d="M3808.71,1312.55l250.94,1005.25,252.33-79.02s-304.42-1291.26-337.36-1343.28c-20.09-40.72-68.61-65.5-82.66-72.51-48.99,80.23-88.97,453.09-83.25,489.56Z"/>
        <path id="b_top_ts_slv_lon_border_l" class="cls-8" d="M3808.71,1312.55l250.94,1005.25,252.33-79.02c-17.35-64.85-317-1315.26-337.36-1343.28-9.14-19.22-27.98-47-82.66-72.51"/>
      </g>
    </g>
  </g>
</svg>