<?xml version="1.0" encoding="UTF-8"?>
<svg xmlns="http://www.w3.org/2000/svg" viewBox="0 0 4535.4 4762.2">
  <defs>
    <style>
      .cls-1, .cls-2, .cls-3, .cls-4, .cls-5, .cls-6, .cls-7, .cls-8, .cls-9, .cls-10, .cls-11, .cls-12, .cls-13, .cls-14 {
        fill: none;
      }

      .cls-1, .cls-15, .cls-9, .cls-11, .cls-12 {
        stroke: #000;
        stroke-miterlimit: 10;
      }

      .cls-2, .cls-3, .cls-4, .cls-7, .cls-10, .cls-16, .cls-14 {
        stroke: #231f20;
        stroke-linecap: round;
      }

      .cls-17 {
        fill: #0071bc;
      }

      .cls-18, .cls-15 {
        fill: #fff;
      }

      .cls-3 {
        stroke-linejoin: round;
      }

      .cls-3, .cls-4, .cls-11 {
        stroke-width: 3px;
      }

      .cls-5, .cls-6 {
        stroke-width: 1.5px;
      }

      .cls-5, .cls-13 {
        stroke: #0071bc;
      }

      .cls-6, .cls-8 {
        stroke: #be1e2d;
      }

      .cls-7 {
        stroke-dasharray: 12.28 12.28;
      }

      .cls-19 {
        fill: #be1e2d;
      }

      .cls-9 {
        stroke-dasharray: 11.53 11.53;
      }

      .cls-10 {
        stroke-dasharray: 12;
      }

      .cls-16 {
        fill: #939598;
        stroke-linejoin: bevel;
      }

      .cls-12 {
        stroke-dasharray: 11.55 11.55;
      }

      .cls-14 {
        stroke-dasharray: 11.75 11.75;
      }

      .cls-20 {
        opacity: .5;
      }
    </style>
  </defs>
  <g id="Mannequin_ISO_EU38_GRP" class="cls-20">
    <g id="body_front_grp">
      <g id="measurements_lines" data-name="measurements lines">
        <path id="waist_line" data-name="waist line" class="cls-4" d="M1492.8,1740.9c0,13.1-138.7,29.6-359.3,29.6s-358.3-18.7-358.3-29.6,188-10,358.3-10,359.3-3.1,359.3,10Z"/>
        <path id="hip_line" data-name="hip line" class="cls-4" d="M658.8,2325.1c0,7.8,228.8,28.4,474.8,28.4s475.8-16.9,475.8-24.4-223.3-23.9-475.8-23.9-474.8,12-474.8,19.9h0Z"/>
        <line id="center_line" data-name="center line" class="cls-4" x1="1133.7" y1="580.2" x2="1133.7" y2="2537"/>
        <path id="bust_line" data-name="bust line" class="cls-4" d="M1560.6,1198.5c-3.3,11.6-163.3,23.1-427,23.1s-426-8-426-23.1c11.4-13.3,186.4-13.7,426-13.7s419.5,4.6,427.1,13.7h-.1Z"/>
      </g>
      <path id="right_leg" data-name="right leg" class="cls-4" d="M1103.7,2536.4c-83.7-135.5-298-350.6-401.9-402.7-28.6,87.8-32.8,133.2-42.9,191.4-10.1,58.2-59.7,324.6-46.9,443.2,12.8,118.6,69.7,631.2,77.7,674.9,8,43.7,14.9,162.4,8.9,239.1s47.2,751.5,74.7,838.1c-1.4-.2,175.8-.2,175.5,0,4.5-112.3,64-626.8,64.5-838.1,0-59.3-4.8-136.1,11.3-239.1,16.1-102.9,69.1-695,68.1-680.3-1,14.7,12.6-109.1,11-226.5h0Z"/>
      <path id="left_leg" data-name="left leg" class="cls-4" d="M1163.6,2536.6c84.4-135.1,298.6-351.2,402.7-402.9,28.2,87.9,33.2,135.4,43.1,193.7,9.9,58.3,59.1,324.8,45.7,443.4-13.4,118.6-73.6,630.8-81.8,674.5-8.2,43.7-15.7,162.3-10,239,5.7,76.7-50.7,751.3-78.6,837.8,1.4-.2-175.8-1.1-175.4-.8-4-112.3-61-627.1-60.6-838.4.3-59.3,5.4-136.1-10.2-239.1s-65.8-695.3-64.9-680.6c.8,14.7-12.1-109.2-9.9-226.6h-.1Z"/>
      <path id="left_arm" data-name="left arm" class="cls-4" d="M707.5,1198.4c-12,82.7-93.4,572.4-93.4,572.4,0,0-130.8,522.2-138.4,546.9-25.2,23.4-119.4,4.5-131.6-13.7-1.3-19.9,66.6-533.3,66.6-533.3,0,0,128-852.6,152.9-881.1,27.2,4.3,91.6,54.3,130.5,118.5,39,64.2,13.4,190.3,13.4,190.3h0Z"/>
      <path id="right_arm" data-name="right arm" class="cls-4" d="M1560.6,1198.5c12,82.7,93,572.4,93,572.4,0,0,130.8,522.2,138.4,546.9,25.2,23.4,119.4,4.5,131.6-13.7,1.3-19.9-66.6-533.3-66.6-533.3,0,0-128-852.6-152.9-881.1-27.2,4.3-91.6,54.3-130.5,118.5-39,64.2-13,190.3-13,190.3h0Z"/>
      <path id="neck_outline" data-name="neck outline" class="cls-4" d="M1133.6,761.5c18.4,0,124.9,3.8,153.8-39.5-30.6-51.1,0-141.7,0-141.7h-306.5s30.6,90.6,0,141.7c30.7,43.3,134.3,39.5,152.8,39.5h-.1Z"/>
      <path id="body_outlines" data-name="body outlines" class="cls-4" d="M1133.6,706c-96.9,0-152.8,16-152.8,16,0,0-25.8,42.4-43.7,48s-174.3,22-194.6,23.3c-20.4,1.3-151.1,29.7-181.7,102.2-25.3,84.9,61.8,259.1,146.7,302.9,19.5,67.7,28.7,118.9,36.8,166.9s31,264.9,31,377.2-49.6,296.5-73.5,391.2c103.3,133.9,401.9,402.5,401.9,402.5l30.9.5,29.9-.5s298.6-268.7,401.9-402.5c-23.9-94.7-73.5-278.9-73.5-391.2s22.9-329.2,31-377.2c8.1-48,17.3-99.2,36.8-166.9,84.9-43.8,172.1-218,146.7-302.9-30.7-72.5-161.3-100.9-181.7-102.2-20.4-1.3-176.8-17.7-194.6-23.3s-43.7-48-43.7-48c0,0-56.9-16-153.8-16h0Z"/>
    </g>
    <g id="body_back_grp">
      <g id="measurements_lines-2" data-name="measurements lines-2">
        <path id="waist_line-2" data-name="waist line-2" class="cls-4" d="M3760.5,1740.9c0,13.1-138.7,29.6-359.3,29.6s-358.3-18.7-358.3-29.6,188-10,358.3-10,359.3-3.1,359.3,10Z"/>
        <path id="hip_line-2" data-name="hip line-2" class="cls-4" d="M2926.6,2325.1c0,7.8,228.8,28.4,474.8,28.4s475.8-16.9,475.8-24.4-223.3-23.9-475.8-23.9-474.8,12-474.8,19.9h0Z"/>
        <line id="center_line-2" data-name="center line-2" class="cls-4" x1="3401.4" y1="580.2" x2="3401.4" y2="2537"/>
        <path id="bust_line-2" data-name="bust line-2" class="cls-4" d="M3828.3,1198.5c-3.3,11.6-163.3,23.1-427.1,23.1s-426-8-426-23.1c11.4-13.3,186.4-13.7,426-13.7s419.5,4.6,427.1,13.7h0Z"/>
      </g>
      <path id="right_leg-2" data-name="right leg-2" class="cls-4" d="M3371.4,2536.4c-83.7-135.5-298-350.6-401.9-402.7-28.6,87.8-32.8,133.2-42.9,191.4-10.1,58.2-59.7,324.6-46.9,443.2,12.8,118.7,69.7,631.2,77.7,674.9,8,43.7,14.9,162.4,8.9,239.1s47.2,751.5,74.6,838.1c-1.4-.2,175.8-.2,175.5,0,4.5-112.3,64-626.8,64.5-838.1,0-59.3-4.8-136.1,11.3-239.1s69.1-695,68.1-680.3c-1,14.7,12.6-109.1,11-226.5h.1Z"/>
      <path id="left_leg-2" data-name="left leg-2" class="cls-4" d="M3431.3,2536.6c84.4-135.1,298.6-351.2,402.7-402.9,28.2,87.9,33.2,135.4,43.1,193.7,9.9,58.3,59.1,324.8,45.7,443.4-13.4,118.6-73.6,630.8-81.8,674.5-8.2,43.7-15.6,162.3-10,239,5.6,76.7-50.7,751.3-78.6,837.8,1.4-.2-175.8-1.1-175.4-.8-4-112.3-61-627.1-60.6-838.4.3-59.3,5.4-136.1-10.2-239.1-15.6-103-65.8-695.3-64.9-680.6.9,14.7-12.1-109.2-9.9-226.6h-.1Z"/>
      <path id="left_arm-2" data-name="left arm-2" class="cls-4" d="M2975.2,1198.4c-12,82.7-93.4,572.4-93.4,572.4,0,0-130.8,522.2-138.4,546.9-25.2,23.4-119.4,4.5-131.6-13.7-1.3-19.9,66.6-533.3,66.6-533.3,0,0,128-852.6,152.9-881.1,27.2,4.3,91.6,54.3,130.5,118.5,39,64.2,13.4,190.3,13.4,190.3h0Z"/>
      <path id="right_arm-2" data-name="right arm-2" class="cls-4" d="M3828.3,1198.5c12,82.7,93,572.4,93,572.4,0,0,130.8,522.2,138.4,546.9,25.2,23.4,119.4,4.5,131.6-13.7,1.3-19.9-66.6-533.3-66.6-533.3,0,0-128-852.6-152.9-881.1-27.2,4.3-91.6,54.3-130.5,118.5-39,64.2-13,190.3-13,190.3h0Z"/>
      <path id="neck_outline-2" data-name="neck outline-2" class="cls-4" d="M3401.3,761.5c18.4,0,124.9,3.8,153.8-39.5-30.6-51.1,0-141.7,0-141.7h-306.5s30.6,90.6,0,141.7c30.6,43.3,134.3,39.5,152.8,39.5h-.1Z"/>
      <path id="body_outlines-2" data-name="body outlines-2" class="cls-4" d="M3401.3,706c-96.9,0-152.8,16-152.8,16,0,0-25.8,42.4-43.6,48-17.8,5.6-174.3,22-194.6,23.3-20.4,1.3-151.1,29.7-181.7,102.2-25.3,84.9,61.8,259.1,146.7,302.9,19.5,67.7,28.7,118.9,36.8,166.9s31,264.9,31,377.2-49.6,296.5-73.5,391.2c0,403.3,401.9,402.5,401.9,402.5l30.9.5,29.9-.5s401.9,37.2,401.9-402.5c-23.9-94.7-73.5-278.9-73.5-391.2s22.9-329.2,31-377.2,17.3-99.2,36.8-166.9c84.9-43.8,172.1-218,146.7-302.9-30.7-72.5-161.4-100.9-181.7-102.2-20.3-1.3-176.8-17.7-194.6-23.3-17.8-5.6-43.6-48-43.6-48,0,0-56.9-16-153.8-16h-.2Z"/>
    </g>
    <g id="construction_points" data-name="construction points" data-description="Seam and reference anchor points">
      <g id="front_anchors" data-name="front anchors">
        <g id="f_cf_neck" data-name="f cf neck" data-label="CF Neck" data-type="seam">
          <line class="cls-8" x1="1115.7" y1="706" x2="1151.7" y2="706"/>
          <line class="cls-8" x1="1133.7" y1="688" x2="1133.7" y2="724"/>
          <circle class="cls-6" cx="1133.7" cy="706" r="10"/>
          <circle class="cls-19" cx="1133.7" cy="706" r="5"/>
        </g>
        <g id="f_hps_l" data-name="f hps l" data-label="HPS" data-type="seam">
          <line class="cls-8" x1="962.8" y1="722" x2="998.8" y2="722"/>
          <line class="cls-8" x1="980.8" y1="704" x2="980.8" y2="740"/>
          <circle class="cls-6" cx="980.8" cy="722" r="10"/>
          <circle class="cls-19" cx="980.8" cy="722" r="5"/>
        </g>
        <g id="f_hps_r" data-name="f hps r" data-label="HPS" data-type="seam">
          <line class="cls-8" x1="1268.5" y1="722" x2="1304.5" y2="722"/>
          <line class="cls-8" x1="1286.5" y1="704" x2="1286.5" y2="740"/>
          <circle class="cls-6" cx="1286.5" cy="722" r="10"/>
          <circle class="cls-19" cx="1286.5" cy="722" r="5"/>
        </g>
        <g id="f_shoulder_pt_l" data-name="f shoulder pt l" data-label="Shoulder Pt" data-type="seam">
          <line class="cls-8" x1="724.5" y1="793.4" x2="760.5" y2="793.4"/>
          <line class="cls-8" x1="742.5" y1="775.4" x2="742.5" y2="811.4"/>
          <circle class="cls-6" cx="742.5" cy="793.4" r="10"/>
          <circle class="cls-19" cx="742.5" cy="793.4" r="5"/>
        </g>
        <g id="f_shoulder_pt_r" data-name="f shoulder pt r" data-label="Shoulder Pt" data-type="seam">
          <line class="cls-8" x1="1506.8" y1="793.4" x2="1542.8" y2="793.4"/>
          <line class="cls-8" x1="1524.8" y1="775.4" x2="1524.8" y2="811.4"/>
          <circle class="cls-6" cx="1524.8" cy="793.4" r="10"/>
          <circle class="cls-19" cx="1524.8" cy="793.4" r="5"/>
        </g>
        <g id="f_armscye_deep_l" data-name="f armscye deep l" data-label="Armscye" data-type="seam">
          <line class="cls-8" x1="542.8" y1="895.5" x2="578.8" y2="895.5"/>
          <line class="cls-8" x1="560.8" y1="877.5" x2="560.8" y2="913.5"/>
          <circle class="cls-6" cx="560.8" cy="895.5" r="10"/>
          <circle class="cls-19" cx="560.8" cy="895.5" r="5"/>
        </g>
        <g id="f_armscye_deep_r" data-name="f armscye deep r" data-label="Armscye" data-type="seam">
          <line class="cls-8" x1="1688.5" y1="895.5" x2="1724.5" y2="895.5"/>
          <line class="cls-8" x1="1706.5" y1="877.5" x2="1706.5" y2="913.5"/>
          <circle class="cls-6" cx="1706.5" cy="895.5" r="10"/>
          <circle class="cls-19" cx="1706.5" cy="895.5" r="5"/>
        </g>
        <g id="f_underarm_l" data-name="f underarm l" data-label="Underarm" data-type="seam">
          <line class="cls-8" x1="689.5" y1="1198.4" x2="725.5" y2="1198.4"/>
          <line class="cls-8" x1="707.5" y1="1180.4" x2="707.5" y2="1216.4"/>
          <circle class="cls-6" cx="707.5" cy="1198.4" r="10"/>
          <circle class="cls-19" cx="707.5" cy="1198.4" r="5"/>
        </g>
        <g id="f_underarm_r" data-name="f underarm r" data-label="Underarm" data-type="seam">
          <line class="cls-8" x1="1542.6" y1="1198.5" x2="1578.6" y2="1198.5"/>
          <line class="cls-8" x1="1560.6" y1="1180.5" x2="1560.6" y2="1216.5"/>
          <circle class="cls-6" cx="1560.6" cy="1198.5" r="10"/>
          <circle class="cls-19" cx="1560.6" cy="1198.5" r="5"/>
        </g>
        <g id="f_side_waist_l" data-name="f side waist l" data-label="Side Waist" data-type="seam">
          <line class="cls-8" x1="757.3" y1="1740.9" x2="793.3" y2="1740.9"/>
          <line class="cls-8" x1="775.3" y1="1722.9" x2="775.3" y2="1758.9"/>
          <circle class="cls-6" cx="775.3" cy="1740.9" r="10"/>
          <circle class="cls-19" cx="775.3" cy="1740.9" r="5"/>
        </g>
        <g id="f_side_waist_r" data-name="f side waist r" data-label="Side Waist" data-type="seam">
          <line class="cls-8" x1="1474.8" y1="1740.9" x2="1510.8" y2="1740.9"/>
          <line class="cls-8" x1="1492.8" y1="1722.9" x2="1492.8" y2="1758.9"/>
          <circle class="cls-6" cx="1492.8" cy="1740.9" r="10"/>
          <circle class="cls-19" cx="1492.8" cy="1740.9" r="5"/>
        </g>
        <g id="f_side_hip_l" data-name="f side hip l" data-label="Side Hip" data-type="seam">
          <line class="cls-8" x1="640.8" y1="2325.1" x2="676.8" y2="2325.1"/>
          <line class="cls-8" x1="658.8" y1="2307.1" x2="658.8" y2="2343.1"/>
          <circle class="cls-6" cx="658.8" cy="2325.1" r="10"/>
          <circle class="cls-19" cx="658.8" cy="2325.1" r="5"/>
        </g>
        <g id="f_side_hip_r" data-name="f side hip r" data-label="Side Hip" data-type="seam">
          <line class="cls-8" x1="1591.4" y1="2325.1" x2="1627.4" y2="2325.1"/>
          <line class="cls-8" x1="1609.4" y1="2307.1" x2="1609.4" y2="2343.1"/>
          <circle class="cls-6" cx="1609.4" cy="2325.1" r="10"/>
          <circle class="cls-19" cx="1609.4" cy="2325.1" r="5"/>
        </g>
        <g id="f_cf_waist" data-name="f cf waist" data-label="CF Waist" data-type="seam">
          <line class="cls-8" x1="1115.7" y1="1740.9" x2="1151.7" y2="1740.9"/>
          <line class="cls-8" x1="1133.7" y1="1722.9" x2="1133.7" y2="1758.9"/>
          <circle class="cls-6" cx="1133.7" cy="1740.9" r="10"/>
          <circle class="cls-19" cx="1133.7" cy="1740.9" r="5"/>
        </g>
        <g id="f_cf_hip" data-name="f cf hip" data-label="CF Hip" data-type="ref">
          <line class="cls-13" x1="1115.7" y1="2325.1" x2="1151.7" y2="2325.1"/>
          <line class="cls-13" x1="1133.7" y1="2307.1" x2="1133.7" y2="2343.1"/>
          <circle class="cls-5" cx="1133.7" cy="2325.1" r="10"/>
          <circle class="cls-17" cx="1133.7" cy="2325.1" r="5"/>
        </g>
        <g id="f_crotch_l" data-name="f crotch l" data-label="Crotch" data-type="seam">
          <line class="cls-8" x1="1085.7" y1="2536.4" x2="1121.7" y2="2536.4"/>
          <line class="cls-8" x1="1103.7" y1="2518.4" x2="1103.7" y2="2554.4"/>
          <circle class="cls-6" cx="1103.7" cy="2536.4" r="10"/>
          <circle class="cls-19" cx="1103.7" cy="2536.4" r="5"/>
        </g>
        <g id="f_crotch_r" data-name="f crotch r" data-label="Crotch" data-type="seam">
          <line class="cls-8" x1="1145.6" y1="2536.6" x2="1181.6" y2="2536.6"/>
          <line class="cls-8" x1="1163.6" y1="2518.6" x2="1163.6" y2="2554.6"/>
          <circle class="cls-6" cx="1163.6" cy="2536.6" r="10"/>
          <circle class="cls-19" cx="1163.6" cy="2536.6" r="5"/>
        </g>
        <g id="f_elbow_l" data-name="f elbow l" data-label="Elbow" data-type="ref">
          <line class="cls-13" x1="596.1" y1="1770.8" x2="632.1" y2="1770.8"/>
          <line class="cls-13" x1="614.1" y1="1752.8" x2="614.1" y2="1788.8"/>
          <circle class="cls-5" cx="614.1" cy="1770.8" r="10"/>
          <circle class="cls-17" cx="614.1" cy="1770.8" r="5"/>
        </g>
        <g id="f_elbow_r" data-name="f elbow r" data-label="Elbow" data-type="ref">
          <line class="cls-13" x1="1635.6" y1="1770.8" x2="1671.6" y2="1770.8"/>
          <line class="cls-13" x1="1653.6" y1="1752.8" x2="1653.6" y2="1788.8"/>
          <circle class="cls-5" cx="1653.6" cy="1770.8" r="10"/>
          <circle class="cls-17" cx="1653.6" cy="1770.8" r="5"/>
        </g>
        <g id="f_wrist_l" data-name="f wrist l" data-label="Wrist" data-type="seam">
          <line class="cls-8" x1="457.7" y1="2317.8" x2="493.7" y2="2317.8"/>
          <line class="cls-8" x1="475.7" y1="2299.8" x2="475.7" y2="2335.8"/>
          <circle class="cls-6" cx="475.7" cy="2317.8" r="10"/>
          <circle class="cls-19" cx="475.7" cy="2317.8" r="5"/>
        </g>
        <g id="f_wrist_r" data-name="f wrist r" data-label="Wrist" data-type="seam">
          <line class="cls-8" x1="1774" y1="2317.8" x2="1810" y2="2317.8"/>
          <line class="cls-8" x1="1792" y1="2299.8" x2="1792" y2="2335.8"/>
          <circle class="cls-6" cx="1792" cy="2317.8" r="10"/>
          <circle class="cls-19" cx="1792" cy="2317.8" r="5"/>
        </g>
      </g>
      <g id="back_anchors" data-name="back anchors">
        <g id="b_cf_neck" data-name="b cf neck" data-label="CB Neck" data-type="seam">
          <line class="cls-8" x1="3383.4" y1="706" x2="3419.4" y2="706"/>
          <line class="cls-8" x1="3401.4" y1="688" x2="3401.4" y2="724"/>
          <circle class="cls-6" cx="3401.4" cy="706" r="10"/>
          <circle class="cls-19" cx="3401.4" cy="706" r="5"/>
        </g>
        <g id="b_hps_l" data-name="b hps l" data-label="HPS" data-type="seam">
          <line class="cls-8" x1="3230.5" y1="722" x2="3266.5" y2="722"/>
          <line class="cls-8" x1="3248.5" y1="704" x2="3248.5" y2="740"/>
          <circle class="cls-6" cx="3248.5" cy="722" r="10"/>
          <circle class="cls-19" cx="3248.5" cy="722" r="5"/>
        </g>
        <g id="b_hps_r" data-name="b hps r" data-label="HPS" data-type="seam">
          <line class="cls-8" x1="3536.2" y1="722" x2="3572.2" y2="722"/>
          <line class="cls-8" x1="3554.2" y1="704" x2="3554.2" y2="740"/>
          <circle class="cls-6" cx="3554.2" cy="722" r="10"/>
          <circle class="cls-19" cx="3554.2" cy="722" r="5"/>
        </g>
        <g id="b_shoulder_pt_l" data-name="b shoulder pt l" data-label="Shoulder Pt" data-type="seam">
          <line class="cls-8" x1="2992.2" y1="793.4" x2="3028.2" y2="793.4"/>
          <line class="cls-8" x1="3010.2" y1="775.4" x2="3010.2" y2="811.4"/>
          <circle class="cls-6" cx="3010.2" cy="793.4" r="10"/>
          <circle class="cls-19" cx="3010.2" cy="793.4" r="5"/>
        </g>
        <g id="b_shoulder_pt_r" data-name="b shoulder pt r" data-label="Shoulder Pt" data-type="seam">
          <line class="cls-8" x1="3774.5" y1="793.4" x2="3810.5" y2="793.4"/>
          <line class="cls-8" x1="3792.5" y1="775.4" x2="3792.5" y2="811.4"/>
          <circle class="cls-6" cx="3792.5" cy="793.4" r="10"/>
          <circle class="cls-19" cx="3792.5" cy="793.4" r="5"/>
        </g>
        <g id="b_armscye_deep_l" data-name="b armscye deep l" data-label="Armscye" data-type="seam">
          <line class="cls-8" x1="2810.5" y1="895.5" x2="2846.5" y2="895.5"/>
          <line class="cls-8" x1="2828.5" y1="877.5" x2="2828.5" y2="913.5"/>
          <circle class="cls-6" cx="2828.5" cy="895.5" r="10"/>
          <circle class="cls-19" cx="2828.5" cy="895.5" r="5"/>
        </g>
        <g id="b_armscye_deep_r" data-name="b armscye deep r" data-label="Armscye" data-type="seam">
          <line class="cls-8" x1="3956.2" y1="895.5" x2="3992.2" y2="895.5"/>
          <line class="cls-8" x1="3974.2" y1="877.5" x2="3974.2" y2="913.5"/>
          <circle class="cls-6" cx="3974.2" cy="895.5" r="10"/>
          <circle class="cls-19" cx="3974.2" cy="895.5" r="5"/>
        </g>
        <g id="b_underarm_l" data-name="b underarm l" data-label="Underarm" data-type="seam">
          <line class="cls-8" x1="2957.2" y1="1198.4" x2="2993.2" y2="1198.4"/>
          <line class="cls-8" x1="2975.2" y1="1180.4" x2="2975.2" y2="1216.4"/>
          <circle class="cls-6" cx="2975.2" cy="1198.4" r="10"/>
          <circle class="cls-19" cx="2975.2" cy="1198.4" r="5"/>
        </g>
        <g id="b_underarm_r" data-name="b underarm r" data-label="Underarm" data-type="seam">
          <line class="cls-8" x1="3810.3" y1="1198.5" x2="3846.3" y2="1198.5"/>
          <line class="cls-8" x1="3828.3" y1="1180.5" x2="3828.3" y2="1216.5"/>
          <circle class="cls-6" cx="3828.3" cy="1198.5" r="10"/>
          <circle class="cls-19" cx="3828.3" cy="1198.5" r="5"/>
        </g>
        <g id="b_side_waist_l" data-name="b side waist l" data-label="Side Waist" data-type="seam">
          <line class="cls-8" x1="3025" y1="1740.9" x2="3061" y2="1740.9"/>
          <line class="cls-8" x1="3043" y1="1722.9" x2="3043" y2="1758.9"/>
          <circle class="cls-6" cx="3043" cy="1740.9" r="10"/>
          <circle class="cls-19" cx="3043" cy="1740.9" r="5"/>
        </g>
        <g id="b_side_waist_r" data-name="b side waist r" data-label="Side Waist" data-type="seam">
          <line class="cls-8" x1="3742.5" y1="1740.9" x2="3778.5" y2="1740.9"/>
          <line class="cls-8" x1="3760.5" y1="1722.9" x2="3760.5" y2="1758.9"/>
          <circle class="cls-6" cx="3760.5" cy="1740.9" r="10"/>
          <circle class="cls-19" cx="3760.5" cy="1740.9" r="5"/>
        </g>
        <g id="b_side_hip_l" data-name="b side hip l" data-label="Side Hip" data-type="seam">
          <line class="cls-8" x1="2908.6" y1="2325.1" x2="2944.6" y2="2325.1"/>
          <line class="cls-8" x1="2926.6" y1="2307.1" x2="2926.6" y2="2343.1"/>
          <circle class="cls-6" cx="2926.6" cy="2325.1" r="10"/>
          <circle class="cls-19" cx="2926.6" cy="2325.1" r="5"/>
        </g>
        <g id="b_side_hip_r" data-name="b side hip r" data-label="Side Hip" data-type="seam">
          <line class="cls-8" x1="3859.2" y1="2325.1" x2="3895.2" y2="2325.1"/>
          <line class="cls-8" x1="3877.2" y1="2307.1" x2="3877.2" y2="2343.1"/>
          <circle class="cls-6" cx="3877.2" cy="2325.1" r="10"/>
          <circle class="cls-19" cx="3877.2" cy="2325.1" r="5"/>
        </g>
        <g id="b_cf_waist" data-name="b cf waist" data-label="CB Waist" data-type="seam">
          <line class="cls-8" x1="3383.4" y1="1740.9" x2="3419.4" y2="1740.9"/>
          <line class="cls-8" x1="3401.4" y1="1722.9" x2="3401.4" y2="1758.9"/>
          <circle class="cls-6" cx="3401.4" cy="1740.9" r="10"/>
          <circle class="cls-19" cx="3401.4" cy="1740.9" r="5"/>
        </g>
        <g id="b_cf_hip" data-name="b cf hip" data-label="CB Hip" data-type="ref">
          <line class="cls-13" x1="3383.4" y1="2325.1" x2="3419.4" y2="2325.1"/>
          <line class="cls-13" x1="3401.4" y1="2307.1" x2="3401.4" y2="2343.1"/>
          <circle class="cls-5" cx="3401.4" cy="2325.1" r="10"/>
          <circle class="cls-17" cx="3401.4" cy="2325.1" r="5"/>
        </g>
        <g id="b_crotch_l" data-name="b crotch l" data-label="Crotch" data-type="seam">
          <line class="cls-8" x1="3353.4" y1="2536.4" x2="3389.4" y2="2536.4"/>
          <line class="cls-8" x1="3371.4" y1="2518.4" x2="3371.4" y2="2554.4"/>
          <circle class="cls-6" cx="3371.4" cy="2536.4" r="10"/>
          <circle class="cls-19" cx="3371.4" cy="2536.4" r="5"/>
        </g>
        <g id="b_crotch_r" data-name="b crotch r" data-label="Crotch" data-type="seam">
          <line class="cls-8" x1="3413.3" y1="2536.6" x2="3449.3" y2="2536.6"/>
          <line class="cls-8" x1="3431.3" y1="2518.6" x2="3431.3" y2="2554.6"/>
          <circle class="cls-6" cx="3431.3" cy="2536.6" r="10"/>
          <circle class="cls-19" cx="3431.3" cy="2536.6" r="5"/>
        </g>
        <g id="b_elbow_l" data-name="b elbow l" data-label="Elbow" data-type="ref">
          <line class="cls-13" x1="2863.8" y1="1770.8" x2="2899.8" y2="1770.8"/>
          <line class="cls-13" x1="2881.8" y1="1752.8" x2="2881.8" y2="1788.8"/>
          <circle class="cls-5" cx="2881.8" cy="1770.8" r="10"/>
          <circle class="cls-17" cx="2881.8" cy="1770.8" r="5"/>
        </g>
        <g id="b_elbow_r" data-name="b elbow r" data-label="Elbow" data-type="ref">
          <line class="cls-13" x1="3903.3" y1="1770.8" x2="3939.3" y2="1770.8"/>
          <line class="cls-13" x1="3921.3" y1="1752.8" x2="3921.3" y2="1788.8"/>
          <circle class="cls-5" cx="3921.3" cy="1770.8" r="10"/>
          <circle class="cls-17" cx="3921.3" cy="1770.8" r="5"/>
        </g>
        <g id="b_wrist_l" data-name="b wrist l" data-label="Wrist" data-type="seam">
          <line class="cls-8" x1="2725.4" y1="2317.8" x2="2761.4" y2="2317.8"/>
          <line class="cls-8" x1="2743.4" y1="2299.8" x2="2743.4" y2="2335.8"/>
          <circle class="cls-6" cx="2743.4" cy="2317.8" r="10"/>
          <circle class="cls-19" cx="2743.4" cy="2317.8" r="5"/>
        </g>
        <g id="b_wrist_r" data-name="b wrist r" data-label="Wrist" data-type="seam">
          <line class="cls-8" x1="4041.8" y1="2317.8" x2="4077.8" y2="2317.8"/>
          <line class="cls-8" x1="4059.8" y1="2299.8" x2="4059.8" y2="2335.8"/>
          <circle class="cls-6" cx="4059.8" cy="2317.8" r="10"/>
          <circle class="cls-19" cx="4059.8" cy="2317.8" r="5"/>
        </g>
      </g>
    </g>
  </g>
  <g id="f_top_ts_GRP">
    <g id="f_top_ts_tor_reg_GRP">
      <path id="f_top_ts_tor_reg" class="cls-4" d="M1527.3,793.3c151.87,25.34,181.7,102.2,181.7,102.2,0,0-135.85,268.74-145.4,302.9-33.94,142.73-59.1,477.9-59.1,542.5,8,129.88,109.97,492.99,112.86,582.32-105.9,24.9-484.96,30.28-484.96,30.28,0,0-374.06-5.38-479.96-30.28,2.89-89.33,104.86-452.44,112.86-582.32,0-64.6-25.16-399.77-59.1-542.5-9.55-34.16-145.4-302.9-145.4-302.9,0,0,29.83-76.86,181.7-102.2"/>
    </g>
    <g id="f_top_ts_nck_mok_GRP">
      <path id="f_top_ts_nck_mok_inline" class="cls-2" d="M939.7,768.84s63.36,56.01,194.2,56.01,193.69-56.01,193.69-56.01"/>
      <g id="f_top_ts_nck_mok_sem_2">
        <g>
          <path class="cls-2" d="M947,762.02s1.69,1.24,4.97,3.35"/>
          <path class="cls-7" d="M962.48,771.72c27.15,15.46,88.47,43.95,171.53,43.95,88.77,0,151.77-31.96,175.3-46.1"/>
          <path class="cls-2" d="M1314.53,766.32c3.28-2.11,4.97-3.36,4.97-3.36"/>
        </g>
      </g>
      <path id="f_top_ts_nck_mok_inside" class="cls-16" d="M981,720s83.64,13.3,153.1,13.3,153.3-11.3,153.3-11.3c0,0-23.16,46.84-153.5,46.84s-152.9-48.84-152.9-48.84Z"/>
      <path id="f_top_ts_nck_mok_sem" class="cls-10" d="M985.64,726.59s81.2,12.52,148.56,12.52,149.36-11.79,149.36-11.79"/>
      <path id="f_top_ts_nck_mok_outline" class="cls-3" d="M742.5,793.3s186.24-16.52,197.2-24.46c10.96-7.93,41.3-48.84,41.3-48.84,0,0,85.24,13.3,152.9,13.3s153.5-11.3,153.5-11.3c0,0,25.11,39.58,40.19,46.84,15.08,7.27,198.11,24.46,198.11,24.46"/>
    </g>
    <g id="f_top_ts_slv_set_GRP">
      <g id="f_top_ts_slv_set_r">
        <path id="f_top_ts_slv_set_shape_r" class="cls-15" d="M726.71,1312.55l-14.78,59.42-284.68-98.72s100.61-325.73,133.55-377.75c20.09-40.72,68.61-65.5,82.66-72.51,48.99,80.23,88.97,453.09,83.25,489.56Z"/>
        <path id="f_top_ts_slv_set_border_r" class="cls-11" d="M726.71,1312.55l-14.78,59.42-284.68-98.72c17.35-64.85,113.2-349.73,133.55-377.75,9.14-19.22,27.98-47,82.66-72.51"/>
        <g id="f_top_ts_slv_set_sem_cuf_r_1">
          <line class="cls-18" x1="432.57" y1="1256.17" x2="714.91" y2="1359.99"/>
          <g>
            <line class="cls-1" x1="432.57" y1="1256.17" x2="438.2" y2="1258.24"/>
            <line class="cls-12" x1="449.04" y1="1262.23" x2="703.86" y2="1355.92"/>
            <line class="cls-1" x1="709.28" y1="1357.92" x2="714.91" y2="1359.99"/>
          </g>
        </g>
        <g id="f_top_ts_slv_set_sem_cuf_r_2">
          <line class="cls-18" x1="435.32" y1="1247.4" x2="717.15" y2="1350.99"/>
          <g>
            <line class="cls-1" x1="435.32" y1="1247.4" x2="440.95" y2="1249.47"/>
            <line class="cls-9" x1="451.77" y1="1253.45" x2="706.11" y2="1346.93"/>
            <line class="cls-1" x1="711.52" y1="1348.92" x2="717.15" y2="1350.99"/>
          </g>
        </g>
      </g>
      <g id="f_top_ts_slv_set_l">
        <path id="f_top_ts_slv_set_shape_l" class="cls-15" d="M1541.13,1312.55l14.78,59.42,284.68-98.72s-100.61-325.73-133.55-377.75c-20.09-40.72-68.61-65.5-82.66-72.51-48.99,80.23-88.97,453.09-83.25,489.56Z"/>
        <path id="f_top_ts_slv_set_border_l" class="cls-11" d="M1541.13,1312.55l14.78,59.42,284.68-98.72c-17.35-64.85-113.2-349.73-133.55-377.75-9.14-19.22-27.98-47-82.66-72.51"/>
        <g id="f_top_ts_slv_set_sem_cuf_l_1">
          <line class="cls-18" x1="1835.27" y1="1256.17" x2="1552.93" y2="1359.99"/>
          <g>
            <line class="cls-1" x1="1835.27" y1="1256.17" x2="1829.64" y2="1258.24"/>
            <line class="cls-12" x1="1818.8" y1="1262.23" x2="1563.98" y2="1355.92"/>
            <line class="cls-1" x1="1558.56" y1="1357.92" x2="1552.93" y2="1359.99"/>
          </g>
        </g>
        <g id="f_top_ts_slv_set_sem_cuf_l_2">
          <line class="cls-18" x1="1832.52" y1="1247.4" x2="1550.69" y2="1350.99"/>
          <g>
            <line class="cls-1" x1="1832.52" y1="1247.4" x2="1826.89" y2="1249.47"/>
            <line class="cls-9" x1="1816.07" y1="1253.45" x2="1561.73" y2="1346.93"/>
            <line class="cls-1" x1="1556.32" y1="1348.92" x2="1550.69" y2="1350.99"/>
          </g>
        </g>
      </g>
    </g>
  </g>
  <g id="b_top_ts_GRP">
    <g id="b_top_ts_nck_mok_GRP">
      <path id="b_top_ts_nck_mok_inline" class="cls-2" d="M3207.48,770.84s63.36,25.01,194.2,25.01,193.69-25.01,193.69-25.01"/>
      <g id="b_top_ts_nck_mok_sem_2">
        <g>
          <path class="cls-2" d="M3214.78,764.02s1.97.61,5.77,1.63"/>
          <path class="cls-14" d="M3231.94,768.51c27.95,6.6,88.46,18.15,169.86,18.15,87.19,0,149.52-12.7,174.01-18.67"/>
          <path class="cls-2" d="M3581.5,766.56c3.81-1,5.78-1.6,5.78-1.6"/>
        </g>
      </g>
      <path id="b_top_ts_nck_mok_sem" class="cls-10" d="M3253.42,728.59s81.2,12.52,148.56,12.52,149.36-11.79,149.36-11.79"/>
      <path id="b_top_ts_nck_mok_outline" class="cls-3" d="M3010.28,795.3s186.24-16.52,197.2-24.46c10.96-7.93,41.3-48.84,41.3-48.84,0,0,85.24,13.3,152.9,13.3s153.5-11.3,153.5-11.3c0,0,25.11,39.58,40.19,46.84,15.08,7.27,198.11,24.46,198.11,24.46"/>
    </g>
    <g id="b_top_ts_tor_reg_GRP">
      <path id="b_top_ts_tor_reg" class="cls-4" d="M3795.08,795.3c151.87,25.34,181.7,102.2,181.7,102.2,0,0-135.85,268.74-145.4,302.9-33.94,142.73-59.1,477.9-59.1,542.5,8,129.88,109.97,492.99,112.86,582.32-105.9,24.9-484.96,30.28-484.96,30.28,0,0-374.06-5.38-479.96-30.28,2.89-89.33,104.86-452.44,112.86-582.32,0-64.6-25.16-399.77-59.1-542.5-9.55-34.16-145.4-302.9-145.4-302.9,0,0,29.83-76.86,181.7-102.2"/>
    </g>
    <g id="b_top_ts_slv_set_GRP">
      <g id="b_top_ts_slv_set_r">
        <path id="f_top_ts_slv_set_shape_r-2" data-name="f_top_ts_slv_set_shape_r" class="cls-15" d="M2994.49,1314.55l-14.78,59.42-284.68-98.72s100.61-325.73,133.55-377.75c20.09-40.72,68.61-65.5,82.66-72.51,48.99,80.23,88.97,453.09,83.25,489.56Z"/>
        <path id="b_top_ts_slv_set_border_r" class="cls-11" d="M2994.49,1314.55l-14.78,59.42-284.68-98.72c17.35-64.85,113.2-349.73,133.55-377.75,9.14-19.22,27.98-47,82.66-72.51"/>
        <g id="b_top_ts_slv_set_sem_cuf_r_1">
          <line class="cls-18" x1="2700.35" y1="1258.17" x2="2982.69" y2="1361.99"/>
          <g>
            <line class="cls-1" x1="2700.35" y1="1258.17" x2="2705.98" y2="1260.24"/>
            <line class="cls-12" x1="2716.82" y1="1264.23" x2="2971.64" y2="1357.92"/>
            <line class="cls-1" x1="2977.06" y1="1359.92" x2="2982.69" y2="1361.99"/>
          </g>
        </g>
        <g id="b_top_ts_slv_set_sem_cuf_r_2">
          <line class="cls-18" x1="2703.1" y1="1249.4" x2="2984.93" y2="1352.99"/>
          <g>
            <line class="cls-1" x1="2703.1" y1="1249.4" x2="2708.73" y2="1251.47"/>
            <line class="cls-9" x1="2719.55" y1="1255.45" x2="2973.89" y2="1348.93"/>
            <line class="cls-1" x1="2979.3" y1="1350.92" x2="2984.93" y2="1352.99"/>
          </g>
        </g>
      </g>
      <g id="b_top_ts_slv_set_l">
        <path id="b_top_ts_slv_set_shape_l" class="cls-15" d="M3808.91,1314.55l14.78,59.42,284.68-98.72s-100.61-325.73-133.55-377.75c-20.09-40.72-68.61-65.5-82.66-72.51-48.99,80.23-88.97,453.09-83.25,489.56Z"/>
        <path id="b_top_ts_slv_set_border_l" class="cls-11" d="M3808.91,1314.55l14.78,59.42,284.68-98.72c-17.35-64.85-113.2-349.73-133.55-377.75-9.14-19.22-27.98-47-82.66-72.51"/>
        <g id="b_top_ts_slv_set_sem_cuf_l_1">
          <line class="cls-18" x1="4103.05" y1="1258.17" x2="3820.71" y2="1361.99"/>
          <g>
            <line class="cls-1" x1="4103.05" y1="1258.17" x2="4097.42" y2="1260.24"/>
            <line class="cls-12" x1="4086.58" y1="1264.23" x2="3831.76" y2="1357.92"/>
            <line class="cls-1" x1="3826.34" y1="1359.92" x2="3820.71" y2="1361.99"/>
          </g>
        </g>
        <g id="b_top_ts_slv_set_sem_cuf_l_2">
          <line class="cls-18" x1="4100.3" y1="1249.4" x2="3818.47" y2="1352.99"/>
          <g>
            <line class="cls-1" x1="4100.3" y1="1249.4" x2="4094.67" y2="1251.47"/>
            <line class="cls-9" x1="4083.85" y1="1255.45" x2="3829.51" y2="1348.93"/>
            <line class="cls-1" x1="3824.1" y1="1350.92" x2="3818.47" y2="1352.99"/>
          </g>
        </g>
      </g>
    </g>
  </g>
</svg>