<?xml version="1.0" encoding="UTF-8"?>
<svg xmlns="http://www.w3.org/2000/svg" viewBox="0 0 400 800">
  <defs>
    <style>
      .cls-1, .cls-2, .cls-3, .cls-4, .cls-5, .cls-6, .cls-7, .cls-8, .cls-9, .cls-10, .cls-11 {
        fill: none;
      }

      .cls-1, .cls-12, .cls-4, .cls-5, .cls-8, .cls-9, .cls-13, .cls-14, .cls-10 {
        stroke-width: .5px;
      }

      .cls-1, .cls-7, .cls-8, .cls-9, .cls-11, .cls-15 {
        stroke: #231f20;
        stroke-linecap: round;
      }

      .cls-2 {
        stroke: #1172ba;
      }

      .cls-2, .cls-3 {
        stroke-width: .25px;
      }

      .cls-3 {
        stroke: #be202e;
      }

      .cls-12 {
        fill: #e6e7e8;
        stroke: #414042;
      }

      .cls-12, .cls-4, .cls-5, .cls-6, .cls-16, .cls-13, .cls-14, .cls-10 {
        stroke-miterlimit: 10;
      }

      .cls-17, .cls-16, .cls-13, .cls-14 {
        fill: #fff;
      }

      .cls-4, .cls-5, .cls-6, .cls-16, .cls-13, .cls-14, .cls-10 {
        stroke: #010101;
      }

      .cls-5 {
        stroke-dasharray: 1.51 1.51;
      }

      .cls-7 {
        stroke-linejoin: round;
      }

      .cls-8, .cls-14 {
        stroke-dasharray: 1.5;
      }

      .cls-9 {
        stroke-dasharray: 1.51 1.51;
      }

      .cls-18 {
        fill: #1172ba;
      }

      .cls-10 {
        stroke-dasharray: 1.52 1.52;
      }

      .cls-19 {
        fill: #be202e;
      }

      .cls-15 {
        fill: #939598;
        stroke-linejoin: bevel;
      }
    </style>
  </defs>
  <g id="Mannequin_STY_9head">
    <g id="Mannequin_GRP">
      <path id="body" class="cls-12" d="M200.02,353.45l7.51-.56c0,2.72,3.15,45.78,3.15,45.78,0,0,7.18,94.2,8,105,.82,10.8-2.32,53.33-2,64s11.57,111.44,11,121c-.57,9.56-8.1,74.22-7,80s5.64,9.98,9,10c9.2.07,26.45-17.92,25-27-4-25-10.21-55.45-10-63,.21-7.55,12.69-111.4,12.69-127.59s-5.56-48.19-4.69-55.41,10.73-89.73,11.35-116.11c.51-21.78-4.88-76.01-4.88-76.01,0,0-2.43-12.7-8.03-25.84-4.02-9.44-12.4-22.73-12.4-27.92s15-57.67,15-57.67l14.34,53.22s.89,26.89.89,34.52c-.52,12.52,17.31,54.54,17.52,57.54.21,3-8.05,18.63-9,23-1.49,6.84,1,28,1,28,0,0,1.64-.57,2-1,.97-1.17,1.7-2.48,2-6,.29-3.39,1-8,1-8,0,0,.92-.65,2-1.22,1.08-.57,3-.78,3-.78l1,12s-1.55,8.55-2,9c-.45.45-4.46,4-5,4s-4.71.6-6,1c-.86.27-2,2-2,2,0,0,7.57,2,8,2s9.29-4.29,10-5c.71-.71,6.25-12.42,7-14,.75-1.58-2-46-2-46l-3.3-64.73s-1.67-14.33-7-29.89c-1.33-3.11-2.14-27.68-8-67.59,0,0-5.2-33.79-13.74-42.04s-15.2-10.08-32.57-10.08c-19.59-1.34-23.3-20.78-17.09-36.73h-15.74s-.04,0-.04,0h-15.74c6.21,15.95,2.5,35.39-17.09,36.73-16.14,0-24.03,1.83-32.57,10.08s-13.74,42.04-13.74,42.04c-5.86,39.91-6.67,64.48-8,67.59-5.33,15.56-7,29.89-7,29.89l-3.3,64.73s-2.75,44.42-2,46c.75,1.58,6.29,13.29,7,14,.71.71,9.57,5,10,5s8-2,8-2c0,0-1.14-1.73-2-2-1.29-.4-5.46-1-6-1s-4.55-3.55-5-4c-.45-.45-2-9-2-9l1-12s1.92.2,3,.78c1.08.57,2,1.22,2,1.22,0,0,.71,4.61,1,8,.3,3.52,1.03,4.83,2,6,.36.43,2,1,2,1,0,0,2.49-21.16,1-28-.95-4.37-9.21-20-9-23,.21-3,18.04-45.03,17.52-57.54,0-7.63.89-34.52.89-34.52l14.34-53.22s15,52.48,15,57.67-8.37,18.48-12.4,27.92c-5.6,13.14-8.03,25.84-8.03,25.84,0,0-5.39,54.23-4.88,76.01.62,26.39,10.47,108.89,11.35,116.11s-4.69,39.22-4.69,55.41,12.48,120.03,12.69,127.59-6,38-10,63c-1.45,9.08,15.8,27.07,25,27,3.36-.02,7.9-4.22,9-10s-6.43-70.44-7-80,10.68-110.33,11-121-2.82-53.2-2-64,8-105,8-105c0,0,3.15-43.05,3.15-45.78l7.51.56h.04Z"/>
      <path id="ears" class="cls-12" d="M223.81,79.35c3.07.93,4.58-3.37,5.67-5.89,1.89-4.36,2.63-11.02-2.67-9.89h-54.63c-5.3-1.13-4.56,5.52-2.67,9.89,1.09,2.52,2.59,6.81,5.67,5.89h48.63Z"/>
      <path id="head" class="cls-12" d="M227.05,63.37c1.07-12.32,4.25-40.84-27.71-41.46-31.96.62-28.78,29.14-27.71,41.46,1.11,6.21,2.22,11.42,3.32,15.68,1.52,5.88,3.03,9.96,4.46,12.38,3.55,4.84,16.19,11.54,19.92,11.54s16.37-6.7,19.92-11.54c1.47-2.48,3.01-6.69,4.57-12.79.2-.78,2.98-13.96,3.22-15.27Z"/>
    </g>
    <g id="construction_points" data-name="construction points">
      <g id="front_anchors" data-name="front anchors">
        <g id="f_cf_neck" data-name="f cf neck" data-label="CF Neck" data-type="seam">
          <line class="cls-3" x1="197.67" y1="120.91" x2="202.29" y2="120.91"/>
          <line class="cls-3" x1="199.98" y1="118.6" x2="199.98" y2="123.22"/>
          <circle class="cls-3" cx="199.98" cy="120.91" r="1.28"/>
          <circle class="cls-19" cx="199.98" cy="120.91" r=".64"/>
        </g>
        <g id="f_hps_l" data-name="f hps l" data-label="HPS" data-type="seam">
          <line class="cls-3" x1="178.03" y1="123.97" x2="182.65" y2="123.97"/>
          <line class="cls-3" x1="180.34" y1="121.65" x2="180.34" y2="126.28"/>
          <circle class="cls-3" cx="180.34" cy="123.97" r="1.28"/>
          <circle class="cls-19" cx="180.34" cy="123.97" r=".64"/>
        </g>
        <g id="f_hps_r" data-name="f hps r" data-label="HPS" data-type="seam">
          <line class="cls-3" x1="217.3" y1="123.97" x2="221.92" y2="123.97"/>
          <line class="cls-3" x1="219.61" y1="121.65" x2="219.61" y2="126.28"/>
          <circle class="cls-3" cx="219.61" cy="123.97" r="1.28"/>
          <circle class="cls-19" cx="219.61" cy="123.97" r=".64"/>
        </g>
        <g id="f_shoulder_pt_l" data-name="f shoulder pt l" data-label="Shoulder Pt" data-type="seam">
          <line class="cls-3" x1="147.41" y1="131.14" x2="152.04" y2="131.14"/>
          <line class="cls-3" x1="149.73" y1="128.83" x2="149.73" y2="133.45"/>
          <circle class="cls-3" cx="149.73" cy="131.14" r="1.28"/>
          <circle class="cls-19" cx="149.73" cy="131.14" r=".64"/>
        </g>
        <g id="f_shoulder_pt_r" data-name="f shoulder pt r" data-label="Shoulder Pt" data-type="seam">
          <line class="cls-3" x1="247.91" y1="131.14" x2="252.54" y2="131.14"/>
          <line class="cls-3" x1="250.22" y1="128.83" x2="250.22" y2="133.45"/>
          <circle class="cls-3" cx="250.22" cy="131.14" r="1.28"/>
          <circle class="cls-19" cx="250.22" cy="131.14" r=".64"/>
        </g>
        <g id="f_armscye_deep_l" data-name="f armscye deep l" data-label="Armscye" data-type="seam">
          <line class="cls-3" x1="126.07" y1="145.26" x2="130.7" y2="145.26"/>
          <line class="cls-3" x1="128.38" y1="142.94" x2="128.38" y2="147.57"/>
          <circle class="cls-3" cx="128.38" cy="145.26" r="1.28"/>
          <circle class="cls-19" cx="128.38" cy="145.26" r=".64"/>
        </g>
        <g id="f_armscye_deep_r" data-name="f armscye deep r" data-label="Armscye" data-type="seam">
          <line class="cls-3" x1="269.25" y1="145.26" x2="273.88" y2="145.26"/>
          <line class="cls-3" x1="271.57" y1="142.94" x2="271.57" y2="147.57"/>
          <circle class="cls-3" cx="271.57" cy="145.26" r="1.28"/>
          <circle class="cls-19" cx="271.57" cy="145.26" r=".64"/>
        </g>
        <g id="f_underarm_l" data-name="f underarm l" data-label="Underarm" data-type="seam">
          <line class="cls-3" x1="143.92" y1="207.17" x2="148.54" y2="207.17"/>
          <line class="cls-3" x1="146.23" y1="204.86" x2="146.23" y2="209.48"/>
          <circle class="cls-3" cx="146.23" cy="207.17" r="1.28"/>
          <circle class="cls-19" cx="146.23" cy="207.17" r=".64"/>
        </g>
        <g id="f_underarm_r" data-name="f underarm r" data-label="Underarm" data-type="seam">
          <line class="cls-3" x1="251.51" y1="207.18" x2="256.13" y2="207.18"/>
          <line class="cls-3" x1="253.82" y1="204.87" x2="253.82" y2="209.49"/>
          <circle class="cls-3" cx="253.82" cy="207.18" r="1.28"/>
          <circle class="cls-19" cx="253.82" cy="207.18" r=".64"/>
        </g>
        <g id="f_side_waist_l" data-name="f side waist l" data-label="Side Waist" data-type="seam">
          <line class="cls-3" x1="151.63" y1="253.86" x2="156.25" y2="253.86"/>
          <line class="cls-3" x1="153.94" y1="251.55" x2="153.94" y2="256.17"/>
          <circle class="cls-3" cx="153.94" cy="253.86" r="1.28"/>
          <circle class="cls-19" cx="153.94" cy="253.86" r=".64"/>
        </g>
        <g id="f_side_waist_r" data-name="f side waist r" data-label="Side Waist" data-type="seam">
          <line class="cls-3" x1="243.8" y1="253.86" x2="248.42" y2="253.86"/>
          <line class="cls-3" x1="246.11" y1="251.55" x2="246.11" y2="256.17"/>
          <circle class="cls-3" cx="246.11" cy="253.86" r="1.28"/>
          <circle class="cls-19" cx="246.11" cy="253.86" r=".64"/>
        </g>
        <g id="f_side_hip_l" data-name="f side hip l" data-label="Side Hip" data-type="seam">
          <line class="cls-3" x1="136.66" y1="314.91" x2="141.29" y2="314.91"/>
          <line class="cls-3" x1="138.97" y1="312.6" x2="138.97" y2="317.22"/>
          <circle class="cls-3" cx="138.97" cy="314.91" r="1.28"/>
          <circle class="cls-19" cx="138.97" cy="314.91" r=".64"/>
        </g>
        <g id="f_side_hip_r" data-name="f side hip r" data-label="Side Hip" data-type="seam">
          <line class="cls-3" x1="258.78" y1="314.91" x2="263.4" y2="314.91"/>
          <line class="cls-3" x1="261.09" y1="312.6" x2="261.09" y2="317.22"/>
          <circle class="cls-3" cx="261.09" cy="314.91" r="1.28"/>
          <circle class="cls-19" cx="261.09" cy="314.91" r=".64"/>
        </g>
        <g id="f_cf_waist" data-name="f cf waist" data-label="CF Waist" data-type="seam">
          <line class="cls-3" x1="197.67" y1="253.86" x2="202.29" y2="253.86"/>
          <line class="cls-3" x1="199.98" y1="251.55" x2="199.98" y2="256.17"/>
          <circle class="cls-3" cx="199.98" cy="253.86" r="1.28"/>
          <circle class="cls-19" cx="199.98" cy="253.86" r=".64"/>
        </g>
        <g id="f_cf_hip" data-name="f cf hip" data-label="CF Hip" data-type="ref">
          <line class="cls-2" x1="197.67" y1="314.91" x2="202.29" y2="314.91"/>
          <line class="cls-2" x1="199.98" y1="312.6" x2="199.98" y2="317.22"/>
          <circle class="cls-2" cx="199.98" cy="314.91" r="1.28"/>
          <circle class="cls-18" cx="199.98" cy="314.91" r=".64"/>
        </g>
        <g id="f_crotch_l" data-name="f crotch l" data-label="Crotch" data-type="seam">
          <line class="cls-3" x1="192.81" y1="356.05" x2="197.44" y2="356.05"/>
          <line class="cls-3" x1="195.13" y1="353.74" x2="195.13" y2="358.37"/>
          <circle class="cls-3" cx="195.13" cy="356.05" r="1.28"/>
          <circle class="cls-19" cx="195.13" cy="356.05" r=".64"/>
        </g>
        <g id="f_crotch_r" data-name="f crotch r" data-label="Crotch" data-type="seam">
          <line class="cls-3" x1="202.51" y1="356.08" x2="207.13" y2="356.08"/>
          <line class="cls-3" x1="204.82" y1="353.77" x2="204.82" y2="358.39"/>
          <circle class="cls-3" cx="204.82" cy="356.08" r="1.28"/>
          <circle class="cls-19" cx="204.82" cy="356.08" r=".64"/>
        </g>
        <g id="f_elbow_l" data-name="f elbow l" data-label="Elbow" data-type="ref">
          <line class="cls-2" x1="130.92" y1="257.7" x2="135.54" y2="257.7"/>
          <line class="cls-2" x1="133.23" y1="255.39" x2="133.23" y2="260.01"/>
          <circle class="cls-2" cx="133.23" cy="257.7" r="1.28"/>
          <circle class="cls-18" cx="133.23" cy="257.7" r=".64"/>
        </g>
        <g id="f_elbow_r" data-name="f elbow r" data-label="Elbow" data-type="ref">
          <line class="cls-2" x1="264.46" y1="257.7" x2="269.08" y2="257.7"/>
          <line class="cls-2" x1="266.77" y1="255.39" x2="266.77" y2="260.01"/>
          <circle class="cls-2" cx="266.77" cy="257.7" r="1.28"/>
          <circle class="cls-18" cx="266.77" cy="257.7" r=".64"/>
        </g>
        <g id="f_wrist_l" data-name="f wrist l" data-label="Wrist" data-type="seam">
          <line class="cls-3" x1="113.14" y1="347.97" x2="117.76" y2="347.97"/>
          <line class="cls-3" x1="115.45" y1="345.66" x2="115.45" y2="350.28"/>
          <circle class="cls-3" cx="115.45" cy="347.97" r="1.28"/>
          <circle class="cls-19" cx="115.45" cy="347.97" r=".64"/>
        </g>
        <g id="f_wrist_r" data-name="f wrist r" data-label="Wrist" data-type="seam">
          <line class="cls-3" x1="282.24" y1="347.97" x2="286.86" y2="347.97"/>
          <line class="cls-3" x1="284.55" y1="345.66" x2="284.55" y2="350.28"/>
          <circle class="cls-3" cx="284.55" cy="347.97" r="1.28"/>
          <circle class="cls-19" cx="284.55" cy="347.97" r=".64"/>
        </g>
      </g>
    </g>
  </g>
  <g id="f_top_ts_GRP">
    <g id="f_top_ts_tor_reg_GRP">
      <path id="f_top_ts_tor_reg" class="cls-11" d="M250.33,131.14c19.89,3.32,24.99,13.4,24.99,13.4,0,0-17.79,35.2-19.04,39.67-4.45,18.69-10.16,61.19-10.16,69.65,1.05,17.01,14.6,49.35,14.98,61.05-13.87,3.26-61.29,4.3-61.29,4.3,0,0-46.96-1.03-60.83-4.3.38-11.7,13.92-44.04,14.97-61.05,0-8.46-5.51-50.96-9.96-69.65-1.25-4.47-19.04-39.67-19.04-39.67,0,0,4.9-10.08,24.79-13.4"/>
    </g>
    <g id="f_top_ts_nck_mok_GRP">
      <path id="f_top_ts_nck_mok_inline" class="cls-1" d="M174.56,127.95s8.3,7.34,25.43,7.34,25.37-7.34,25.37-7.34"/>
      <g id="f_top_ts_nck_mok_sem_2">
        <g>
          <path class="cls-1" d="M175.52,127.06s.21.15.62.42"/>
          <path class="cls-9" d="M177.43,128.26c3.49,2.01,11.58,5.82,22.59,5.82,11.71,0,20-4.25,23.03-6.08"/>
          <path class="cls-1" d="M223.69,127.6c.41-.26.62-.42.62-.42"/>
        </g>
      </g>
      <path id="f_top_ts_nck_mok_inside" class="cls-15" d="M179.97,121.55s10.95,1.74,20.05,1.74,20.08-1.48,20.08-1.48c0,0-3.03,6.14-20.1,6.14s-20.03-6.4-20.03-6.4Z"/>
      <path id="f_top_ts_nck_mok_sem" class="cls-8" d="M180.58,122.42s10.64,1.64,19.46,1.64,19.56-1.54,19.56-1.54"/>
      <path id="f_top_ts_nck_mok_outline" class="cls-7" d="M149.73,131.14s23.4-2.15,24.84-3.19,5.41-6.4,5.41-6.4c0,0,11.16,1.74,20.03,1.74s20.1-1.48,20.1-1.48c0,0,3.29,5.18,5.26,6.14s24.75,3.19,24.75,3.19"/>
    </g>
    <g id="f_top_ts_slv_set_l">
      <path id="f_top_ts_slv_set_shape_l" class="cls-13" d="M253.33,199.16l1.94,7.78,37.29-12.93s-13.18-42.66-17.49-49.47c-2.63-5.33-9.07-8.33-10.91-9.24-6.42,10.51-11.56,59.09-10.82,63.86Z"/>
      <path id="f_top_ts_slv_set_border_l" class="cls-16" d="M253.33,199.16l1.94,7.78,37.29-12.93c-2.27-8.49-14.83-45.8-17.49-49.47-1.2-2.52-3.75-5.9-10.91-9.24"/>
      <g id="f_top_ts_slv_set_sem_cuf_l_1">
        <line class="cls-17" x1="291.86" y1="191.78" x2="254.88" y2="205.37"/>
        <g>
          <line class="cls-4" x1="291.86" y1="191.78" x2="291.15" y2="192.03"/>
          <line class="cls-10" x1="289.73" y1="192.56" x2="256.29" y2="204.85"/>
          <line class="cls-4" x1="255.58" y1="205.11" x2="254.88" y2="205.37"/>
        </g>
      </g>
      <line id="f_top_ts_slv_set_sem_cuf_l_2" class="cls-14" x1="291.5" y1="190.63" x2="254.58" y2="204.2"/>
    </g>
    <g id="f_top_ts_slv_set_r">
      <path id="f_top_ts_slv_set_shape_r" class="cls-13" d="M146.67,199.16l-1.94,7.78-37.29-12.93s13.18-42.66,17.49-49.47c2.63-5.33,9.16-8.29,11-9.21,6.42,10.51,11.48,59.05,10.73,63.83Z"/>
      <path id="f_top_ts_slv_set_border_r" class="cls-6" d="M146.67,199.16l-1.94,7.78-37.29-12.93c2.27-8.49,14.83-45.8,17.49-49.47,1.2-2.52,3.83-5.87,11-9.21"/>
      <g id="f_top_ts_slv_set_sem_cuf_r_2">
        <line class="cls-17" x1="108.5" y1="190.63" x2="145.42" y2="204.2"/>
        <g>
          <line class="cls-4" x1="108.5" y1="190.63" x2="109.21" y2="190.89"/>
          <line class="cls-5" x1="110.63" y1="191.41" x2="144" y2="203.68"/>
          <line class="cls-4" x1="144.71" y1="203.94" x2="145.42" y2="204.2"/>
        </g>
      </g>
      <g id="f_top_ts_slv_set_sem_cuf_r_2-2" data-name="f_top_ts_slv_set_sem_cuf_r_2">
        <line class="cls-17" x1="109.32" y1="189.48" x2="146.23" y2="203.05"/>
        <g>
          <line class="cls-4" x1="109.32" y1="189.48" x2="110.02" y2="189.74"/>
          <line class="cls-5" x1="111.44" y1="190.26" x2="144.81" y2="202.53"/>
          <line class="cls-4" x1="145.53" y1="202.79" x2="146.23" y2="203.05"/>
        </g>
      </g>
    </g>
  </g>
</svg>